<?xml version="1.0" encoding="UTF-8"?>
<svg id="Layer_1" data-name="Layer 1" xmlns="http://www.w3.org/2000/svg" viewBox="0 0 400 400">
  <defs>
    <style>
      .cls-1 {
        fill: #005eac;
      }

      .cls-2 {
        fill: #ffe012;
      }

      .cls-3 {
        fill: #f48120;
      }

      .cls-4 {
        fill: #231f20;
      }

      .cls-5 {
        fill: #404041;
      }
    </style>
  </defs>
  <path class="cls-4" d="M152.67,288.35c-2.02-8.23-5.5-16.89-11.16-23.31-6.08-6.88-14.74-11.35-22.65-15.74-4.46-2.47-8.97-4.86-13.46-7.27-4.21-2.25-8.55-5.23-13.16-6.58-1.74-.51-3.37-.69-4.87-.6-14.47-9.54-28.95-19.08-43.42-28.61-8.08-5.33-15.61,7.66-7.57,12.95,13.4,8.83,26.81,17.67,40.21,26.5-.13,.66-.23,1.34-.29,2.04-.89,10.38-.59,21.01,.09,31.39,.32,4.86,.6,9.84,1.62,14.62,.49,2.29,1.22,4.5,2.21,6.62,.19,.41,.85,1.34,1.46,2.26-.83,1.14-1.33,2.56-1.33,4.19,0,3.74,3.44,7.91,7.5,7.5,9.34-.94,12.2-9.64,7.8-17.24-4.25-7.36-4.24-15.46-4.6-23.84-.19-4.58-.26-9.16-.2-13.74,.02-1.45,.05-2.89,.1-4.34,3.72,2.45,7.44,4.9,11.16,7.36,3.21,2.11,6.32,1.34,8.41-.69,6.63,3.59,14.05,7.14,19.27,12.63,5.05,5.31,8.14,14.11,9.1,21.28,1.16,8.65,.3,17.9,.28,26.61-.02,8.96-.04,17.91-.06,26.87-.02,9.65,14.98,9.67,15,0,.02-10.24,.04-20.47,.07-30.71,.02-9.98,.87-20.38-1.53-30.16Z"/>
  <path class="cls-4" d="M317.13,257.03c-5.7-5.94-14.53-3.52-21.6-2.12-7.82,1.55-15.53,3.7-23.03,6.42-7.27,2.64-14.54,5.29-19,12-4.32,6.49-5.69,14.74-6.38,22.35-1.54,17.11-.51,34.71-.59,51.88-.04,9.65,14.96,9.67,15,0,.06-13.93,.05-27.86,.19-41.79,.06-6.33,.22-12.71,2.04-18.83,.82-2.76,1.83-5.66,4.22-7.42,2.45-1.8,5.69-2.71,8.51-3.74,6.06-2.2,12.25-4.02,18.53-5.45,2.92-.67,7.29-.64,9.93-1.94l1.38-.21c-.26-1.08-.29-1.27-.1-.56,.61,.88,.44,2.72,.46,3.78,.08,6.45-2.53,12.79-3.44,19.15-.95,6.68-.33,12.62,2.41,18.8,1.66,3.73,7.02,4.53,10.26,2.69,3.84-2.18,4.33-6.58,2.69-10.26-2.97-6.69,.99-15.37,2.16-22.03,1.29-7.32,1.98-16.86-3.64-22.72Z"/>
  <path class="cls-4" d="M371.38,64.36c-15.49,2.74-29.9,12.13-44.16,18.42-14.95,6.59-30.18,12.52-45.61,17.91-9.05,3.16-5.16,17.66,3.99,14.46,15.46-5.4,30.71-11.38,45.73-17.91,7.5-3.26,14.94-6.66,22.31-10.2,7.08-3.4,13.92-6.84,21.73-8.22,9.49-1.68,5.47-16.14-3.99-14.46Z"/>
  <g>
    <polygon class="cls-4" points="189.83 13.93 46.38 88.52 46.38 260.66 204.18 369.68 350.49 252.05 339.02 65.57 189.83 13.93"/>
    <g>
      <path class="cls-4" d="M372.71,136.56l-.27,.34c-2.14-1.98-5.29-2.86-8.6-1.13-20.81,10.86-41.08,22.92-61.56,34.4-8.42,4.72-.87,17.68,7.57,12.95,20.48-11.48,40.75-23.53,61.56-34.4,1.85-.97,2.95-2.34,3.44-3.84,1.45,.29,2.64-.2,2.81-2.45,.46-6.23-4.95-5.88-4.95-5.88Z"/>
      <path class="cls-4" d="M126.16,189.83c-15.77-8.7-31.15-18.09-46.05-28.21-13.73-9.33-26.91-21.29-43.46-25.19-3.25-.77-5.85,.47-7.48,2.5l-1.89-2.37s-5.41-.35-4.95,5.88c.25,3.3,2.71,2.81,4.97,1.62-.07,3,1.54,5.93,5.36,6.83,15.59,3.68,28.42,15.96,41.41,24.72,14.42,9.73,29.28,18.77,44.51,27.17,8.46,4.67,16.03-8.28,7.57-12.95Z"/>
      <path class="cls-4" d="M193.91,396.95s5.54,5.8,12.18,0c6.64-5.8-7.44-9.88-7.44-9.88l-4.74,9.88Z"/>
      <path class="cls-4" d="M17.07,70.67s-.37-4.26,4.14-5.92v9.44l-3.91,.56-.23-4.09Z"/>
      <path class="cls-4" d="M78.19,48.2s-.37-4.26,4.14-5.92v9.44l-3.91,.56-.23-4.09Z"/>
      <path class="cls-4" d="M139.31,25.73s-.37-4.26,4.14-5.92v9.44l-3.91,.56-.23-4.09Z"/>
      <path class="cls-4" d="M382.96,71.17s.02-4.76-4.49-6.42v9.43l4.21,.97,.28-3.98Z"/>
      <path class="cls-4" d="M321.48,48.2s.37-4.26-4.14-5.92v9.44l3.91,.56,.23-4.09Z"/>
      <path class="cls-4" d="M260.36,25.73s.37-4.26-4.14-5.92v9.44l3.91,.56,.23-4.09Z"/>
      <path class="cls-4" d="M260,357.5s-2.12,1.72-4.63,.36c-2.51-1.36-.41-6.21-.41-6.21l5.03,5.84Z"/>
      <path class="cls-4" d="M315.83,316.64s-2.12,1.72-4.63,.36c-2.51-1.36-.41-6.21-.41-6.21l5.03,5.84Z"/>
      <path class="cls-4" d="M140.35,357.77s2.12,1.72,4.63,.36c2.51-1.36,.41-6.21,.41-6.21l-5.03,5.84Z"/>
      <path class="cls-4" d="M84.17,316.64s2.12,1.72,4.63,.36c2.51-1.36,.41-6.21,.41-6.21l-5.03,5.84Z"/>
      <path class="cls-4" d="M143.45,123.02l51.99,23.25c2.52,1.13,4.56,4.86,4.56,8.34v71.77c0,3.47-1.98,5.23-4.43,3.91l-50.49-27.09c-2.45-1.32-4.49-5.04-4.56-8.33l-1.5-67.93c-.07-3.29,1.91-5.05,4.43-3.92"/>
      <path class="cls-3" d="M146.6,130.77l45.83,20.81c1.51,.69,2.73,2.93,2.73,5.01l.11,63.14c0,2.07-1.19,3.13-2.66,2.35l-44.71-23.67c-1.47-.78-2.7-3.01-2.74-5l-1.22-60.29c-.04-1.98,1.15-3.04,2.66-2.35"/>
      <path class="cls-4" d="M82.34,95.69l51.99,23.25c2.52,1.13,4.62,4.71,4.69,8l1.51,67.93c.07,3.29-1.86,4.9-4.3,3.58l-50.49-27.09c-2.44-1.32-4.55-4.9-4.7-8l-2.99-64.1c-.14-3.1,1.79-4.71,4.3-3.58"/>
      <path class="cls-5" d="M85.63,103.07l45.83,20.81c1.51,.69,2.77,2.84,2.81,4.81l1.43,59.75c.05,1.97-1.1,2.93-2.58,2.15l-44.71-23.66c-1.47-.78-2.73-2.93-2.81-4.8l-2.54-56.9c-.08-1.87,1.07-2.83,2.58-2.15"/>
      <path class="cls-4" d="M21.22,68.36l51.99,23.25c2.52,1.13,4.68,4.55,4.83,7.67l2.99,64.1c.14,3.1-1.72,4.55-4.17,3.24l-50.49-27.09c-2.44-1.31-4.61-4.74-4.83-7.67l-4.49-60.26c-.22-2.92,1.65-4.37,4.17-3.25"/>
      <path class="cls-3" d="M24.65,75.38l45.83,20.81c1.51,.69,2.81,2.75,2.9,4.6l2.75,56.36c.09,1.86-1.03,2.72-2.5,1.95l-44.72-23.67c-1.47-.78-2.77-2.83-2.9-4.6l-3.86-53.5c-.13-1.76,.99-2.63,2.5-1.95"/>
      <path class="cls-4" d="M145.08,203.22l50.49,27.09c2.44,1.32,4.43,5.2,4.43,8.68v71.77c0,3.48-1.92,5.09-4.29,3.59l-48.99-30.93c-2.38-1.5-4.37-5.38-4.43-8.68l-1.51-67.93c-.07-3.29,1.86-4.9,4.3-3.58"/>
      <path class="cls-3" d="M148.14,211.18l44.5,24.2c1.46,.79,2.65,3.13,2.66,5.2l.1,63.14c0,2.08-1.15,3.04-2.58,2.16l-43.38-27.06c-1.43-.88-2.62-3.22-2.66-5.2l-1.22-60.29c-.04-1.98,1.12-2.94,2.58-2.15"/>
      <path class="cls-4" d="M85.73,171.37l50.49,27.09c2.44,1.32,4.49,5.05,4.56,8.34l1.5,67.93c.07,3.29-1.79,4.74-4.17,3.25l-48.99-30.93c-2.37-1.5-4.42-5.23-4.56-8.33l-2.99-64.1c-.14-3.1,1.72-4.56,4.17-3.25"/>
      <path class="cls-3" d="M88.93,178.98l44.5,24.2c1.46,.79,2.69,3.04,2.73,5.01l1.43,59.75c.05,1.97-1.07,2.84-2.5,1.95l-43.39-27.05c-1.43-.89-2.65-3.13-2.73-5.01l-2.54-56.9c-.09-1.88,1.04-2.74,2.5-1.95"/>
      <path class="cls-4" d="M26.37,139.53l50.49,27.09c2.44,1.32,4.55,4.9,4.69,8l3,64.1c.14,3.1-1.67,4.41-4.04,2.91l-48.99-30.93c-2.37-1.5-4.47-5.08-4.69-8l-4.49-60.26c-.23-2.92,1.59-4.23,4.03-2.91"/>
      <path class="cls-3" d="M29.72,146.78l44.5,24.2c1.46,.79,2.72,2.95,2.81,4.8l2.75,56.36c.09,1.86-.99,2.63-2.42,1.75l-43.39-27.06c-1.43-.88-2.69-3.04-2.81-4.8l-3.86-53.5c-.14-1.77,.96-2.54,2.42-1.75"/>
      <path class="cls-4" d="M146.71,283.41l48.99,30.93c2.37,1.5,4.3,5.53,4.3,9.01v71.77c0,3.47-1.87,4.93-4.18,3.25l-47.49-34.76c-2.3-1.69-4.23-5.72-4.3-9.01l-1.5-67.93c-.07-3.29,1.79-4.74,4.17-3.25"/>
      <path class="cls-3" d="M149.69,291.6l43.18,27.59c1.43,.91,2.58,3.33,2.58,5.4l.11,63.14c0,2.08-1.12,2.95-2.5,1.95l-42.07-30.44c-1.39-1-2.54-3.42-2.58-5.4l-1.22-60.29c-.05-1.98,1.07-2.86,2.5-1.95"/>
      <path class="cls-4" d="M89.12,247.06l48.99,30.93c2.37,1.5,4.36,5.38,4.43,8.67l1.5,67.93c.07,3.29-1.73,4.6-4.03,2.91l-47.5-34.76c-2.3-1.69-4.28-5.57-4.43-8.68l-2.99-64.09c-.15-3.11,1.66-4.41,4.03-2.91"/>
      <path class="cls-3" d="M92.23,254.89l43.18,27.59c1.43,.91,2.62,3.24,2.66,5.2l1.43,59.75c.05,1.97-1.04,2.75-2.42,1.75l-42.07-30.44c-1.39-1-2.57-3.33-2.66-5.2l-2.53-56.9c-.09-1.88,.99-2.66,2.42-1.75"/>
      <path class="cls-4" d="M31.53,210.7l48.99,30.93c2.37,1.5,4.42,5.23,4.56,8.33l2.99,64.1c.14,3.1-1.61,4.26-3.91,2.57l-47.5-34.76c-2.3-1.69-4.35-5.42-4.56-8.33l-4.49-60.27c-.22-2.91,1.53-4.07,3.91-2.57"/>
      <path class="cls-3" d="M34.78,218.18l43.18,27.59c1.43,.91,2.65,3.15,2.74,5.01l2.75,56.35c.09,1.86-.96,2.54-2.35,1.54l-42.07-30.44c-1.38-1-2.61-3.24-2.73-5l-3.87-53.51c-.13-1.76,.92-2.45,2.35-1.54"/>
      <path class="cls-4" d="M256.55,123.02l-51.99,23.25c-2.52,1.13-4.56,4.86-4.56,8.34v71.77c0,3.47,1.98,5.23,4.43,3.91l50.49-27.09c2.45-1.32,4.49-5.04,4.56-8.33l1.5-67.93c.07-3.29-1.91-5.05-4.43-3.92"/>
      <path class="cls-1" d="M253.4,130.77l-45.83,20.81c-1.51,.69-2.73,2.93-2.73,5.01l-.11,63.14c0,2.07,1.19,3.13,2.66,2.35l44.71-23.67c1.47-.78,2.7-3.01,2.74-5l1.22-60.29c.04-1.98-1.15-3.04-2.66-2.35"/>
      <path class="cls-4" d="M317.66,95.69l-51.99,23.25c-2.52,1.13-4.62,4.71-4.69,8l-1.51,67.93c-.07,3.29,1.86,4.9,4.3,3.58l50.49-27.09c2.44-1.32,4.55-4.9,4.7-8l2.99-64.1c.14-3.1-1.79-4.71-4.3-3.58"/>
      <path class="cls-5" d="M314.37,103.07l-45.83,20.81c-1.51,.69-2.77,2.84-2.81,4.81l-1.43,59.75c-.05,1.97,1.1,2.93,2.58,2.15l44.71-23.66c1.47-.78,2.73-2.93,2.81-4.8l2.54-56.9c.08-1.87-1.07-2.83-2.58-2.15"/>
      <path class="cls-4" d="M378.78,68.36l-51.99,23.25c-2.52,1.13-4.68,4.55-4.83,7.67l-2.99,64.1c-.14,3.1,1.72,4.55,4.17,3.24l50.49-27.09c2.44-1.31,4.61-4.74,4.83-7.67l4.49-60.26c.22-2.92-1.65-4.37-4.17-3.25"/>
      <path class="cls-1" d="M375.35,75.38l-45.83,20.81c-1.51,.69-2.81,2.75-2.9,4.6l-2.75,56.36c-.09,1.86,1.03,2.72,2.5,1.95l44.72-23.67c1.47-.78,2.77-2.83,2.9-4.6l3.86-53.5c.13-1.76-.99-2.63-2.5-1.95"/>
      <path class="cls-4" d="M254.92,203.22l-50.49,27.09c-2.44,1.32-4.43,5.2-4.43,8.68v71.77c0,3.48,1.92,5.09,4.29,3.59l48.99-30.93c2.38-1.5,4.37-5.38,4.43-8.68l1.51-67.93c.07-3.29-1.86-4.9-4.3-3.58"/>
      <path class="cls-1" d="M251.86,211.18l-44.5,24.2c-1.46,.79-2.65,3.13-2.66,5.2l-.1,63.14c0,2.08,1.15,3.04,2.58,2.16l43.38-27.06c1.43-.88,2.62-3.22,2.66-5.2l1.22-60.29c.04-1.98-1.12-2.94-2.58-2.15"/>
      <path class="cls-4" d="M314.27,171.37l-50.49,27.09c-2.44,1.32-4.49,5.05-4.56,8.34l-1.5,67.93c-.07,3.29,1.79,4.74,4.17,3.25l48.99-30.93c2.37-1.5,4.42-5.23,4.56-8.33l2.99-64.1c.14-3.1-1.72-4.56-4.17-3.25"/>
      <path class="cls-1" d="M311.07,178.98l-44.5,24.2c-1.46,.79-2.69,3.04-2.73,5.01l-1.43,59.75c-.05,1.97,1.07,2.84,2.5,1.95l43.39-27.05c1.43-.89,2.65-3.13,2.73-5.01l2.54-56.9c.09-1.88-1.04-2.74-2.5-1.95"/>
      <path class="cls-4" d="M373.63,139.53l-50.49,27.09c-2.44,1.32-4.55,4.9-4.69,8l-3,64.1c-.14,3.1,1.67,4.41,4.04,2.91l48.99-30.93c2.37-1.5,4.47-5.08,4.69-8l4.49-60.26c.23-2.92-1.59-4.23-4.03-2.91"/>
      <path class="cls-1" d="M370.28,146.78l-44.5,24.2c-1.46,.79-2.72,2.95-2.81,4.8l-2.75,56.36c-.09,1.86,.99,2.63,2.42,1.75l43.39-27.06c1.43-.88,2.69-3.04,2.81-4.8l3.86-53.5c.14-1.77-.96-2.54-2.42-1.75"/>
      <path class="cls-4" d="M253.29,283.41l-48.99,30.93c-2.37,1.5-4.3,5.53-4.3,9.01v71.77c0,3.47,1.87,4.93,4.18,3.25l47.49-34.76c2.3-1.69,4.23-5.72,4.3-9.01l1.5-67.93c.07-3.29-1.79-4.74-4.17-3.25"/>
      <path class="cls-1" d="M250.31,291.6l-43.18,27.59c-1.43,.91-2.58,3.33-2.58,5.4l-.11,63.14c0,2.08,1.12,2.95,2.5,1.95l42.07-30.44c1.39-1,2.54-3.42,2.58-5.4l1.22-60.29c.05-1.98-1.07-2.86-2.5-1.95"/>
      <path class="cls-4" d="M310.88,247.06l-48.99,30.93c-2.37,1.5-4.36,5.38-4.43,8.67l-1.5,67.93c-.07,3.29,1.73,4.6,4.03,2.91l47.5-34.76c2.3-1.69,4.28-5.57,4.43-8.68l2.99-64.09c.15-3.11-1.66-4.41-4.03-2.91"/>
      <path class="cls-1" d="M307.77,254.89l-43.18,27.59c-1.43,.91-2.62,3.24-2.66,5.2l-1.43,59.75c-.05,1.97,1.04,2.75,2.42,1.75l42.07-30.44c1.39-1,2.57-3.33,2.66-5.2l2.53-56.9c.09-1.88-.99-2.66-2.42-1.75"/>
      <path class="cls-4" d="M368.47,210.7l-48.99,30.93c-2.37,1.5-4.42,5.23-4.56,8.33l-2.99,64.1c-.14,3.1,1.61,4.26,3.91,2.57l47.5-34.76c2.3-1.69,4.35-5.42,4.56-8.33l4.49-60.27c.22-2.91-1.53-4.07-3.91-2.57"/>
      <path class="cls-1" d="M365.22,218.18l-43.18,27.59c-1.43,.91-2.65,3.15-2.74,5.01l-2.75,56.35c-.09,1.86,.96,2.54,2.35,1.54l42.07-30.44c1.38-1,2.61-3.24,2.73-5l3.87-53.51c.13-1.76-.92-2.45-2.35-1.54"/>
      <path class="cls-4" d="M256.56,122.86l-51.85,23.14c-2.52,1.12-6.59,1.12-9.12,0l-52.03-23.14c-2.53-1.12-2.53-2.89-.02-3.94l51.9-21.8c2.52-1.06,6.6-1.06,9.12,0l52,21.8c2.52,1.06,2.53,2.82,0,3.94"/>
      <path class="cls-2" d="M248.69,122.16l-45.81,20.35c-1.52,.67-3.96,.67-5.47,0l-45.97-20.35c-1.52-.67-1.52-1.73,0-2.36l45.86-19.36c1.51-.64,3.96-.64,5.47,0l45.94,19.36c1.52,.63,1.52,1.7,0,2.36"/>
      <path class="cls-4" d="M317.52,95.66l-51.85,23.14c-2.52,1.12-6.59,1.17-9.11,.12l-52-21.8c-2.52-1.06-2.52-2.77,0-3.82l51.9-21.8c2.52-1.06,6.59-1.11,9.11-.12l51.94,20.46c2.52,.99,2.53,2.71,0,3.82"/>
      <path class="cls-2" d="M309.64,95.08l-45.81,20.35c-1.52,.67-3.96,.7-5.47,.07l-45.93-19.17c-1.51-.63-1.52-1.66,0-2.29l45.85-19.36c1.51-.63,3.96-.67,5.47-.07l45.89,18.17c1.52,.6,1.52,1.62,0,2.29"/>
      <path class="cls-4" d="M378.47,68.46l-51.85,23.14c-2.52,1.12-6.59,1.23-9.11,.23l-51.94-20.46c-2.52-.99-2.52-2.65,0-3.71l51.9-21.8c2.52-1.06,6.59-1.16,9.11-.23l51.89,19.11c2.52,.93,2.53,2.59,0,3.71"/>
      <path class="cls-2" d="M370.6,68l-45.81,20.35c-1.52,.67-3.96,.74-5.47,.14l-45.89-17.98c-1.51-.6-1.51-1.6,0-2.23l45.85-19.36c1.52-.63,3.96-.69,5.47-.14l45.86,16.97c1.51,.56,1.51,1.56,0,2.23"/>
      <path class="cls-4" d="M195.44,97.12l-51.9,21.8c-2.52,1.06-6.6,1-9.13-.12l-52.03-23.14c-2.53-1.12-2.53-2.83,0-3.82l51.94-20.46c2.53-.99,6.61-.94,9.13,.12l51.99,21.8c2.52,1.06,2.53,2.77,0,3.82"/>
      <path class="cls-2" d="M187.56,96.34l-45.86,19.17c-1.51,.63-3.96,.6-5.47-.07l-45.97-20.35c-1.52-.68-1.52-1.7,0-2.3l45.89-18.17c1.51-.6,3.96-.57,5.47,.07l45.93,19.36c1.52,.63,1.52,1.66,0,2.29"/>
      <path class="cls-4" d="M256.45,71.49l-51.9,21.8c-2.52,1.06-6.6,1.06-9.12,0l-51.99-21.8c-2.53-1.06-2.53-2.71,0-3.71l51.95-20.46c2.52-.99,6.6-.99,9.12,0l51.93,20.46c2.53,.99,2.53,2.65,0,3.71"/>
      <path class="cls-2" d="M248.58,70.84l-45.86,19.17c-1.51,.63-3.96,.63-5.47,0l-45.93-19.17c-1.52-.63-1.52-1.62,0-2.23l45.89-18.17c1.51-.6,3.96-.6,5.47,0l45.9,18.17c1.51,.6,1.51,1.6,0,2.23"/>
      <path class="cls-4" d="M317.46,45.87l-51.9,21.8c-2.52,1.06-6.59,1.11-9.12,.12l-51.94-20.46c-2.52-.99-2.52-2.6,0-3.59l51.95-20.46c2.52-.99,6.6-1.05,9.12-.12l51.89,19.11c2.52,.93,2.52,2.53,0,3.59"/>
      <path class="cls-2" d="M309.59,45.34l-45.86,19.17c-1.51,.63-3.96,.66-5.47,.07l-45.89-17.98c-1.51-.59-1.51-1.55,0-2.16l45.89-18.17c1.52-.6,3.96-.63,5.47-.07l45.85,16.98c1.51,.56,1.51,1.52,0,2.16"/>
      <path class="cls-4" d="M134.32,71.38l-51.95,20.46c-2.52,.99-6.6,.88-9.12-.23l-52.04-23.14c-2.53-1.12-2.53-2.78,0-3.71l52-19.11c2.53-.93,6.61-.82,9.13,.23l51.99,21.8c2.53,1.06,2.53,2.71,0,3.71"/>
      <path class="cls-2" d="M126.44,70.52l-45.9,17.98c-1.51,.6-3.96,.53-5.47-.14l-45.97-20.36c-1.52-.67-1.52-1.66,0-2.22l45.94-16.98c1.51-.56,3.96-.5,5.47,.14l45.94,19.35c1.51,.64,1.51,1.63,0,2.23"/>
      <path class="cls-4" d="M195.39,47.33l-51.95,20.46c-2.52,.99-6.6,.94-9.12-.12l-51.99-21.8c-2.53-1.06-2.53-2.66,0-3.59l52-19.11c2.52-.93,6.6-.87,9.12,.12l51.94,20.46c2.52,.99,2.52,2.6,0,3.59"/>
      <path class="cls-2" d="M187.51,46.6l-45.9,17.98c-1.51,.6-3.96,.56-5.47-.06l-45.94-19.17c-1.51-.63-1.51-1.6,0-2.16l45.94-16.98c1.52-.56,3.96-.52,5.47,.07l45.89,18.17c1.51,.6,1.51,1.56,0,2.16"/>
      <path class="cls-4" d="M256.46,23.28l-51.95,20.46c-2.52,.99-6.59,.99-9.11,0l-51.94-20.46c-2.53-.99-2.52-2.54,0-3.47L195.45,.7c2.53-.93,6.6-.93,9.12,0l51.9,19.11c2.51,.93,2.51,2.48,0,3.47"/>
      <path class="cls-2" d="M248.58,22.67l-45.9,17.98c-1.51,.6-3.96,.6-5.47,0l-45.89-17.98c-1.51-.6-1.51-1.52,0-2.08L197.26,3.61c1.52-.56,3.97-.56,5.47,0l45.85,16.98c1.52,.56,1.51,1.49,0,2.08"/>
      <path class="cls-4" d="M32.57,207.4s-5.41-.35-4.95,5.88c.47,6.23,8.81-1.04,8.81-1.04l-3.86-4.84Z"/>
      <path class="cls-4" d="M367.43,207.4s5.41-.35,4.95,5.88c-.47,6.23-8.81-1.04-8.81-1.04l3.86-4.84Z"/>
    </g>
  </g>
</svg>