<?xml version="1.0" encoding="UTF-8"?>
<svg id="Layer_1" data-name="Layer 1" xmlns="http://www.w3.org/2000/svg" viewBox="0 0 400 400">
  <defs>
    <style>
      .cls-1 {
        fill: #00ae4d;
      }

      .cls-2 {
        fill: #f48120;
      }

      .cls-3 {
        fill: #fff;
      }

      .cls-4 {
        fill: #231f20;
      }

      .cls-5 {
        fill: #404041;
      }
    </style>
  </defs>
  <path class="cls-4" d="M351.86,215.21c-1.45-.1-2.91-.21-4.36-.37-.15-.07-3.28-.61-3.31-.62-3.15-.64-6.26-1.44-9.35-2.35-6.51-1.93-12.84-4.37-19.12-6.96-.45-.19-.8-.33-1.08-.44-.3-.13-.76-.33-1.43-.62-1.64-.7-3.28-1.41-4.92-2.11-.44-.19-.88-.37-1.32-.56-.03-.24-.07-.48-.1-.72-.27-1.92-.53-3.85-.8-5.78-.18-1.28-.35-2.57-.52-3.85-.29-2.15-.35-2.57-.17-1.26-1.01-7.5-2.1-15.03-3.17-22.58,5.65,1.73,11.26,3.61,16.76,5.76,.37,.15,2.56,1.07,2.84,1.17,1.22,.54,2.43,1.08,3.64,1.65,2.97,1.41,5.88,2.94,8.75,4.54,7.76,4.34,18.92,2.12,23.26-6.1,4.24-8.02,2.19-18.62-6.1-23.26-15.18-8.49-31.49-14.08-48.1-18.82,.08-.28,.18-.54,.24-.83,1.67-7.33-1.19-14.96-7.3-18.88-.51-9.71-.61-19.41-.07-29.09,.5-8.89-8.18-17.4-17-17-9.64,.43-16.46,7.47-17,17-.36,6.4-.41,12.8-.24,19.19-3.66-.91-7.32-1.8-10.99-2.65-6.54-1.51-13.19-2.84-19.9-3.72-.51-14.34-.99-28.67-1.52-43-.32-8.88-7.59-17.42-17-17-8.93,.4-17.35,7.48-17,17,.33,9.01,.64,18.03,.96,27.05-8.59-2.47-17.17-4.94-25.76-7.39-3.02-.86-6.21-1.85-9.46-2.71-.14-15.53,.11-31.07,1.07-46.6,.55-8.89-8.21-17.39-17-17-9.68,.43-16.41,7.47-17,17-.55,8.97-.87,17.94-1.02,26.9-2.75-1.98-6.06-3.14-9.59-2.99-9.18,.41-17.04,7.47-17,17,.05,12.07,.08,24.14,.08,36.2-1.12-1.24-2.46-2.3-4.01-3.12-8.01-4.23-18.64-2.2-23.26,6.1-7.42,13.32-15,27.14-18.62,42.06-2.63,10.85-3.09,22.01-3.1,33.16-5.26,7.17-10.3,14.55-12.65,23.26-.18,.67-.3,1.36-.39,2.05-.95-1.11-2.08-1.84-2.35,.49-.48,4.21,2.29,4.44,2.29,4.44l.1-.21c.97,6.54,5.55,12.61,12.23,14.13,.46,.1,.92,.18,1.39,.25,.08,3.39,.17,6.78,.27,10.17-7.13,9.94-13.41,20.46-19.45,31.08-4.4,7.73-2.08,18.94,6.1,23.26,5.23,2.76,11.47,2.83,16.5,.3,1.05,3.61,2.86,6.93,5.31,9.68-1.75,3.25-2.53,7.05-2.04,10.64,1.05,7.79,8.24,15.41,16.7,14.74,2.19-.17,4.25-.48,6.26-.95,1.46-.11,2.92-.13,4.38-.09,.28,0,2.4,.2,3.17,.24,.84,.18,3.05,.6,3,.59,4.46,1,8.8,2.45,13.08,4.03-.2,.09-.39,.2-.58,.29,.09-.12-2.78,.89-3.08,.97-.68,.18-5.32,.87-2.14,.56-8.82,.89-17.44,7.18-17,17,.38,8.45,7.52,17.95,17,17,15-1.51,27.31-7.71,38.74-17.38,2.38-2.02,4.66-4.15,6.88-6.35,2.49,.47,4.99,.91,7.49,1.32,2.38,.93,4.75,1.85,7.14,2.75,3.37,1.27,6.75,2.51,10.14,3.72-2.78,2.55-5.54,5.11-8.29,7.66-6.42,5.96-6.57,17.58-.31,23.72l-1.84,.56s.29,3.91,3.69,4.89c1.36,.39,2.25-.69,2.83-2.12,6.41,3.18,14.05,2.21,19.67-3.01,6.87-6.37,13.74-12.75,20.78-18.93,.21-.19,.43-.37,.64-.56,16.85,5.12,33.82,9.83,50.8,14.47,5.2,1.42,11.02,.03,15.26-3.27,.55,.9,1.3,1.54,2.25,.95,2.76-1.74,1.91-5.32,1.91-5.32l-.31,.11c.81-1.32,1.44-2.78,1.8-4.35,2.04-8.97-2.69-18.41-11.87-20.91-8.57-2.34-17.13-4.7-25.68-7.12,2.83-1.66,5.7-3.26,8.59-4.8,19.47,4.69,38.96,9.31,58.43,14.01,8.63,2.08,18.83-2.73,20.91-11.87,1.99-8.75-2.63-18.68-11.87-20.91-7.42-1.79-14.84-3.57-22.26-5.34,8-6.24,16.24-14.32,16.68-24.88,.28-6.65-2.01-11.93-5.71-16.22,3.83-7.09,5.6-15.38,5.55-23.6,12.9,4.96,26.01,8.51,39.97,9.44,8.89,.59,17.39-8.24,17-17-.44-9.71-7.48-16.37-17-17Zm-252.31-37.53c-4.66,5.43-9.04,11.1-13.62,16.6-.02-1.6-.04-3.21-.05-4.81,.11-.14,.21-.28,.32-.42,.1-.13,.45-.57,1.05-1.35,1.44-1.81,2.86-3.63,4.31-5.44,2.52-3.16,5.06-6.31,7.59-9.47,.2-.25,.41-.51,.61-.76-.06,1.88-.13,3.77-.2,5.65Zm90.7-64.2c.26,3.98,1.9,7.85,4.81,10.84,1,1.03,2.05,2.01,3.13,2.96,.28,7.31,.58,14.61,.9,21.91,.16,3.56,.33,7.12,.51,10.68-11.62-6.14-23.62-11.59-35.88-16.35-.54-12.7-1.12-25.4-1.59-38.11,9.4,2.54,18.77,5.29,28.12,8.06Zm-3.01,142.7c-6.84,4.8-13.53,9.83-20.05,15.06-15.13-4.8-30.2-9.79-45.39-14.44,.41-1.1,.81-2.21,1.19-3.32,1.65-1.72,3.33-3.4,5.09-5.03,.41-.38,.69-.65,.88-.85,.2-.13,.45-.29,.76-.5,1.33-.9,2.68-1.78,4.09-2.56,.05-.03,.18-.09,.35-.17,3.25,4.03,8.23,6.75,13.33,6.52,6.15-.28,11.2-3.28,14.16-7.91,.87,.15,1.73,.29,2.59,.46,3.66,.7,7.29,1.52,10.91,2.39,6.62,1.6,13.19,3.4,19.76,5.16-2.58,1.69-5.15,3.4-7.68,5.18Zm-17.62-46.18c-1.47-.25-2.95-.49-4.43-.71,.1-9.52,0-19.05-.2-28.57,4.72,2.11,9.43,4.36,14.18,6.81,.44,.55,.91,1.09,1.44,1.6,6.11,5.84,13.75,8.85,21.69,11.25,.52,6.07,1.11,12.09,2.17,17.97-11.53-3.1-23.07-6.36-34.85-8.35Zm97.03-52.67c.16,.04,.33,.09,.49,.13,.48,3.65,.97,7.29,1.44,10.93,.83,6.41,1.68,12.81,2.53,19.21-11.83-3.83-23.64-7.54-35.23-12.14-.49-.19-.97-.39-1.46-.58-.51-8.22-.94-16.45-1.31-24.68-.05-1.22-.1-2.44-.15-3.65,10.96,4.39,22.28,7.73,33.68,10.79Zm-6.47,128.88c-4.68,2.26-9.47,4.29-14.22,6.4-11.61-2.82-23.21-5.67-34.8-8.59-1.1-.28-2.2-.57-3.31-.86,3.43-2.33,6.91-4.61,10.4-6.86,4.94-3.19,10.03-6.95,14.15-11.41,10.34,8.81,22.77,15.69,35.35,17.35-2.47,1.42-5,2.73-7.57,3.97Zm16.9-39.9c.01-.09-.04-.04-.13,.1-4.87-1.95-9.8-3.74-14.79-5.36-1.74-.56-3.57-.74-5.4-.62-5.81-4.27-10.67-9.01-14.23-14.87-.57-.93-1.12-1.88-1.63-2.84-.09-.16-1.31-2.96-1.38-2.95-.81-2.35-1.37-4.74-1.91-7.17-.04-.19-.08-.36-.12-.52,9.5,3.37,19.06,6.52,28.71,9.65,3.65,1.19,6.98,2.35,10.15,3.52,.38,2.59,.74,5.01,1,6.92,.21,1.51,.5,6.34,.57,9.11,.02,.66,.03,1.12,.03,1.44-.2,1.2-.49,2.42-.88,3.58Z"/>
  <path class="cls-4" d="M20.97,339.12s-1.43,5.73,2.9,6.97c4.32,1.24,3.44-6.97,3.44-6.97h-6.34Z"/>
  <path class="cls-4" d="M376.05,306.5s3.8-1.68,3.13-7.52c-.67-5.86-8.97,.71-8.97,.71l5.84,6.81Z"/>
  <path class="cls-4" d="M371.78,229.97s.73,4.24-1.91,5.12c-2.1,.69-6.24-.34-6.24-.34l8.16-4.78Z"/>
  <path class="cls-4" d="M364.25,159.82s.73,4.24-1.91,5.12c-2.1,.69-6.24-.34-6.24-.34l8.16-4.78Z"/>
  <rect class="cls-4" x="20.63" y="252.02" width="148.64" height="26.88" transform="translate(-152.98 131.24) rotate(-41.89)"/>
  <polygon class="cls-4" points="330 268.95 173.88 216.79 165.36 242.29 321.48 294.44 330 268.95"/>
  <rect class="cls-4" x="124.92" y="37.16" width="26.88" height="164.6"/>
  <polygon class="cls-4" points="317.95 120.74 177.44 61.55 179.59 183.01 327.76 236.55 317.95 120.74"/>
  <path class="cls-4" d="M293.2,275.58l-68.46-23.03c-3.34-1.12-6.12-4.47-6.23-7.47l-2.12-62.35c-.1-3,2.43-4.47,5.67-3.27l66.34,24.58c3.24,1.2,6.02,4.54,6.23,7.48l4.24,60.78c.2,2.93-2.34,4.4-5.67,3.28"/>
  <path class="cls-2" d="M288.85,268.55l-60.36-20.46c-2-.67-3.67-2.68-3.73-4.48l-2.02-54.95c-.07-1.8,1.45-2.68,3.4-1.97l58.78,21.62c1.95,.71,3.62,2.72,3.73,4.48l3.59,53.8c.12,1.76-1.4,2.65-3.4,1.97"/>
  <path class="cls-4" d="M373.75,302.67l-68.46-23.03c-3.34-1.12-6.21-4.41-6.41-7.33l-4.24-60.79c-.2-2.93,2.25-4.33,5.49-3.13l66.35,24.58c3.23,1.2,6.1,4.48,6.41,7.34l6.35,59.23c.31,2.85-2.15,4.25-5.49,3.13"/>
  <path class="cls-2" d="M369.2,295.79l-60.36-20.46c-2-.67-3.72-2.65-3.85-4.4l-3.89-53.58c-.13-1.75,1.34-2.59,3.29-1.88l58.78,21.62c1.95,.71,3.67,2.69,3.85,4.4l5.46,52.43c.18,1.72-1.29,2.56-3.29,1.88"/>
  <path class="cls-4" d="M210.35,175.13l-66.35-24.58c-3.23-1.19-5.85-4.66-5.85-7.74v-63.9c0-3.08,2.54-4.54,5.67-3.27l64.24,26.13c3.13,1.28,5.75,4.75,5.85,7.75l2.12,62.35c.1,3-2.44,4.47-5.67,3.27"/>
  <path class="cls-2" d="M206.32,167.86l-58.48-21.83c-1.94-.72-3.51-2.81-3.51-4.65l-.15-56.33c0-1.85,1.52-2.72,3.4-1.96l56.92,22.99c1.88,.76,3.45,2.84,3.51,4.64l1.72,55.17c.06,1.81-1.46,2.69-3.4,1.97"/>
  <path class="cls-4" d="M288.41,204.05l-66.35-24.58c-3.23-1.19-5.94-4.6-6.04-7.61l-2.12-62.35c-.1-3,2.36-4.41,5.49-3.13l64.23,26.13c3.13,1.28,5.84,4.68,6.04,7.61l4.24,60.79c.2,2.93-2.25,4.33-5.49,3.13"/>
  <path class="cls-2" d="M284.19,196.93l-58.48-21.83c-1.94-.72-3.56-2.77-3.62-4.57l-2.02-54.96c-.06-1.79,1.41-2.64,3.29-1.87l56.92,22.99c1.88,.76,3.5,2.81,3.62,4.57l3.59,53.8c.12,1.76-1.35,2.6-3.29,1.88"/>
  <path class="cls-4" d="M366.48,232.97l-66.35-24.58c-3.23-1.19-6.01-4.54-6.22-7.47l-4.24-60.79c-.2-2.93,2.17-4.27,5.3-2.99l64.23,26.13c3.13,1.28,5.92,4.62,6.23,7.48l6.35,59.23c.31,2.85-2.07,4.19-5.3,2.99"/>
  <path class="cls-2" d="M362.05,226l-58.48-21.83c-1.94-.72-3.61-2.73-3.73-4.49l-3.89-53.58c-.13-1.75,1.29-2.56,3.17-1.79l56.92,22.99c1.88,.76,3.56,2.76,3.73,4.48l5.46,52.43c.18,1.71-1.24,2.52-3.18,1.79"/>
  <path class="cls-4" d="M208.05,101.76l-64.23-26.13c-3.13-1.28-5.67-4.81-5.67-7.89V3.84c0-3.08,2.46-4.48,5.49-3.13l62.12,27.69c3.03,1.35,5.56,4.88,5.67,7.89l2.12,62.35c.1,3-2.36,4.41-5.49,3.13"/>
  <path class="cls-5" d="M204.15,94.41l-56.62-23.21c-1.87-.77-3.39-2.88-3.39-4.73l-.15-56.33c0-1.85,1.47-2.69,3.29-1.88l55.05,24.36c1.82,.81,3.34,2.93,3.39,4.73l1.73,55.17c.05,1.8-1.42,2.65-3.29,1.88"/>
  <path class="cls-4" d="M283.63,132.52l-64.23-26.13c-3.13-1.28-5.75-4.75-5.85-7.75l-2.12-62.35c-.1-3,2.27-4.35,5.3-2.99l62.12,27.69c3.03,1.35,5.65,4.82,5.85,7.75l4.24,60.79c.2,2.93-2.17,4.27-5.3,2.99"/>
  <path class="cls-5" d="M279.52,125.31l-56.62-23.21c-1.87-.77-3.45-2.85-3.51-4.64l-2.02-54.96c-.07-1.79,1.36-2.6,3.18-1.79l55.05,24.36c1.82,.81,3.39,2.88,3.51,4.65l3.59,53.8c.12,1.76-1.31,2.56-3.18,1.79"/>
  <path class="cls-4" d="M359.2,163.27l-64.23-26.13c-3.13-1.28-5.84-4.69-6.04-7.61l-4.24-60.79c-.2-2.93,2.08-4.21,5.11-2.86l62.12,27.69c3.03,1.35,5.73,4.76,6.04,7.61l6.35,59.23c.31,2.85-1.98,4.13-5.11,2.86"/>
  <path class="cls-5" d="M354.9,156.2l-56.62-23.21c-1.87-.77-3.5-2.82-3.62-4.57l-3.9-53.58c-.13-1.76,1.25-2.53,3.07-1.72l55.05,24.36c1.82,.81,3.45,2.85,3.62,4.57l5.46,52.42c.18,1.72-1.2,2.48-3.07,1.72"/>
  <polygon class="cls-4" points="302.66 308.91 154.89 261.34 86.99 325.83 223.44 364.82 302.66 308.91"/>
  <path class="cls-4" d="M84.25,362.32l-59.36-15.87c-2.88-.77-3.89-2.76-2.26-4.44l33.59-34.71c1.63-1.68,5.41-2.33,8.43-1.45l62.48,18.24c3.03,.88,4.04,2.87,2.26,4.43l-36.72,32.35c-1.78,1.57-5.55,2.21-8.43,1.45"/>
  <path class="cls-3" d="M84.18,358.34l-52.66-14.19c-1.74-.47-2.35-1.66-1.36-2.66l29.9-30.51c.98-1,3.25-1.39,5.05-.87l54.98,15.95c1.81,.53,2.42,1.72,1.36,2.66l-32.22,28.74c-1.06,.94-3.33,1.34-5.06,.87"/>
  <path class="cls-4" d="M154.02,380.97l-59.36-15.87c-2.88-.77-3.77-2.66-1.98-4.23l36.72-32.35c1.78-1.57,5.67-2.12,8.7-1.23l62.48,18.24c3.02,.88,3.91,2.77,1.98,4.23l-39.84,29.98c-1.93,1.45-5.83,2.01-8.7,1.24"/>
  <path class="cls-3" d="M154.25,377.22l-52.66-14.19c-1.74-.47-2.27-1.6-1.19-2.54l32.65-28.41c1.08-.94,3.41-1.27,5.22-.75l54.98,15.95c1.81,.53,2.35,1.66,1.19,2.54l-34.97,26.66c-1.15,.88-3.49,1.21-5.22,.74"/>
  <path class="cls-4" d="M223.8,399.63l-59.36-15.87c-2.88-.77-3.64-2.57-1.71-4.02l39.84-29.98c1.93-1.45,5.95-1.91,8.97-1.03l62.48,18.24c3.03,.88,3.79,2.68,1.71,4.02l-42.95,27.61c-2.08,1.34-6.11,1.79-8.98,1.03"/>
  <path class="cls-3" d="M224.32,396.1l-52.66-14.19c-1.74-.47-2.19-1.55-1.03-2.42l35.41-26.32c1.17-.86,3.57-1.14,5.38-.61l54.98,15.94c1.81,.53,2.27,1.61,1.03,2.42l-37.74,24.56c-1.24,.81-3.65,1.09-5.38,.62"/>
  <path class="cls-4" d="M127.13,324.08l-62.48-18.24c-3.03-.88-4.16-2.96-2.54-4.64l33.59-34.72c1.63-1.68,5.53-2.24,8.71-1.23l65.6,20.6c3.18,1,4.31,3.08,2.54,4.64l-36.72,32.34c-1.78,1.57-5.67,2.13-8.7,1.24"/>
  <path class="cls-3" d="M126.88,319.97l-55.42-16.28c-1.82-.53-2.5-1.78-1.51-2.78l29.89-30.51c.99-1,3.33-1.34,5.22-.74l57.74,18.03c1.91,.6,2.59,1.85,1.52,2.79l-32.22,28.74c-1.06,.94-3.4,1.28-5.22,.74"/>
  <path class="cls-4" d="M200.58,345.52l-62.48-18.24c-3.03-.88-4.03-2.87-2.25-4.44l36.71-32.34c1.79-1.57,5.8-2.03,8.98-1.03l65.6,20.6c3.17,1,4.19,2.99,2.25,4.43l-39.83,29.99c-1.93,1.45-5.95,1.91-8.98,1.03"/>
  <path class="cls-3" d="M200.62,341.63l-55.42-16.28c-1.82-.53-2.42-1.73-1.35-2.66l32.66-28.41c1.07-.93,3.49-1.21,5.38-.61l57.74,18.03c1.9,.6,2.51,1.79,1.36,2.66l-34.98,26.65c-1.15,.88-3.56,1.16-5.38,.62"/>
  <path class="cls-4" d="M274.02,366.96l-62.48-18.24c-3.03-.88-3.91-2.77-1.98-4.23l39.84-29.99c1.93-1.45,6.07-1.82,9.25-.82l65.6,20.6c3.17,1,4.07,2.89,1.99,4.23l-42.96,27.61c-2.08,1.34-6.23,1.71-9.26,.83"/>
  <path class="cls-3" d="M274.36,363.29l-55.42-16.28c-1.82-.53-2.36-1.67-1.19-2.54l35.41-26.32c1.17-.87,3.65-1.09,5.55-.49l57.74,18.03c1.9,.6,2.43,1.74,1.19,2.54l-37.74,24.57c-1.23,.81-3.73,1.03-5.55,.49"/>
  <path class="cls-4" d="M247.13,310.07l-65.6-20.6c-3.17-1-4.31-3.08-2.54-4.64l36.72-32.35c1.78-1.57,5.92-1.93,9.26-.83l68.73,22.98c3.33,1.11,4.46,3.19,2.53,4.64l-39.83,29.98c-1.93,1.45-6.07,1.83-9.26,.83"/>
  <path class="cls-3" d="M246.99,306.05l-58.18-18.37c-1.91-.6-2.59-1.85-1.52-2.79l32.66-28.41c1.08-.94,3.56-1.16,5.55-.49l60.49,20.13c1.99,.66,2.67,1.91,1.52,2.79l-34.98,26.65c-1.15,.88-3.63,1.1-5.55,.49"/>
  <path class="cls-4" d="M324.24,334.29l-65.6-20.6c-3.17-1-4.19-2.99-2.25-4.44l39.83-29.98c1.93-1.45,6.2-1.74,9.53-.62l68.73,22.98c3.33,1.11,4.34,3.1,2.26,4.44l-42.96,27.61c-2.08,1.34-6.35,1.62-9.53,.61"/>
  <path class="cls-3" d="M324.4,330.49l-58.18-18.37c-1.91-.6-2.52-1.8-1.35-2.67l35.41-26.32c1.17-.86,3.73-1.03,5.72-.37l60.49,20.13c1.99,.66,2.59,1.85,1.35,2.66l-37.73,24.57c-1.24,.81-3.8,.97-5.72,.37"/>
  <polygon class="cls-4" points="119.27 72.53 56.36 159.48 45.7 273.05 116.24 192.88 119.27 72.53"/>
  <path class="cls-4" d="M56.57,307.84l-33.43,34.85c-1.62,1.68-2.67,.78-2.35-2.03l6.64-57.95c.31-2.81,1.81-6.52,3.33-8.3l31.33-36.72c1.51-1.78,2.57-.87,2.35,2.03l-4.53,59.81c-.22,2.9-1.72,6.62-3.33,8.31"/>
  <path class="cls-1" d="M55.07,304.31l-29.38,30.92c-.97,1.01-1.61,.47-1.41-1.22l5.72-51.33c.19-1.69,1.08-3.92,2-4.98l27.83-32.31c.91-1.06,1.55-.52,1.41,1.22l-4.16,52.72c-.14,1.74-1.03,3.96-2,4.98"/>
  <path class="cls-4" d="M95.87,266.87l-33.43,34.85c-1.62,1.68-2.76,.71-2.54-2.19l4.53-59.82c.22-2.89,1.63-6.69,3.15-8.47l31.33-36.72c1.51-1.78,2.65-.8,2.54,2.19l-2.43,61.69c-.12,2.99-1.53,6.78-3.15,8.47"/>
  <path class="cls-1" d="M94.18,263.17l-29.38,30.92c-.97,1.01-1.65,.43-1.52-1.32l3.85-52.98c.13-1.74,.98-4.02,1.89-5.08l27.83-32.31c.92-1.06,1.6-.48,1.52,1.31l-2.3,54.38c-.08,1.79-.92,4.06-1.89,5.08"/>
  <path class="cls-4" d="M62.09,237.69l-31.33,36.72c-1.51,1.78-2.48,.94-2.16-1.86l6.64-57.96c.31-2.81,1.73-6.6,3.15-8.47l29.22-38.59c1.41-1.87,2.38-1.04,2.16,1.86l-4.53,59.82c-.22,2.9-1.62,6.69-3.15,8.47"/>
  <path class="cls-1" d="M60.71,234.26l-27.53,32.57c-.91,1.07-1.49,.57-1.3-1.11l5.72-51.33c.2-1.69,1.04-3.96,1.9-5.09l25.96-33.96c.85-1.12,1.44-.62,1.29,1.11l-4.15,52.72c-.14,1.74-.99,4.01-1.89,5.08"/>
  <path class="cls-4" d="M98.92,194.52l-31.33,36.72c-1.51,1.78-2.57,.87-2.35-2.03l4.54-59.82c.21-2.9,1.54-6.76,2.96-8.63l29.22-38.59c1.41-1.87,2.47-.96,2.35,2.02l-2.43,61.69c-.12,2.99-1.44,6.86-2.96,8.63"/>
  <path class="cls-1" d="M97.34,190.93l-27.53,32.57c-.91,1.07-1.54,.53-1.41-1.22l3.86-52.98c.13-1.74,.93-4.07,1.78-5.18l25.96-33.96c.86-1.12,1.49-.58,1.41,1.22l-2.3,54.37c-.08,1.79-.88,4.11-1.78,5.18"/>
  <path class="cls-4" d="M135.74,151.36l-31.33,36.72c-1.51,1.78-2.65,.79-2.54-2.19l2.43-61.69c.12-2.99,1.36-6.92,2.78-8.8l29.22-38.59c1.42-1.87,2.55-.89,2.54,2.19l-.32,63.56c-.02,3.08-1.27,7.02-2.78,8.8"/>
  <path class="cls-1" d="M133.97,147.59l-27.53,32.57c-.91,1.07-1.58,.48-1.52-1.32l2-54.63c.07-1.79,.82-4.16,1.67-5.27l25.96-33.96c.86-1.12,1.54-.54,1.52,1.31l-.43,56.02c-.02,1.85-.77,4.21-1.67,5.28"/>
  <path class="cls-4" d="M67.61,167.53l-29.22,38.59c-1.42,1.87-2.31,1.11-1.98-1.69l6.64-57.96c.32-2.81,1.65-6.67,2.97-8.63l27.12-40.46c1.31-1.96,2.2-1.2,1.97,1.7l-4.53,59.82c-.22,2.9-1.54,6.76-2.96,8.63"/>
  <path class="cls-5" d="M66.36,164.22l-25.67,34.22c-.84,1.12-1.37,.67-1.18-1.02l5.72-51.33c.19-1.68,.99-4.01,1.78-5.18l24.11-35.61c.79-1.17,1.32-.71,1.19,1.02l-4.16,52.72c-.14,1.74-.94,4.06-1.78,5.18"/>
  <path class="cls-4" d="M101.96,122.17l-29.22,38.59c-1.42,1.87-2.39,1.04-2.17-1.86l4.54-59.82c.21-2.9,1.46-6.84,2.77-8.8l27.12-40.46c1.31-1.97,2.28-1.13,2.16,1.86l-2.42,61.69c-.12,2.99-1.36,6.92-2.78,8.8"/>
  <path class="cls-5" d="M100.51,118.68l-25.67,34.22c-.84,1.12-1.42,.62-1.29-1.11l3.85-52.98c.13-1.74,.88-4.11,1.67-5.28l24.11-35.61c.79-1.17,1.38-.67,1.3,1.11l-2.3,54.37c-.08,1.79-.83,4.16-1.67,5.28"/>
  <path class="cls-4" d="M136.31,76.81l-29.22,38.59c-1.42,1.87-2.47,.96-2.36-2.02l2.44-61.69c.11-2.99,1.28-7,2.59-8.96L136.88,2.27c1.32-1.97,2.36-1.05,2.36,2.02l-.33,63.55c-.02,3.08-1.17,7.09-2.59,8.97"/>
  <path class="cls-5" d="M134.66,73.15l-25.67,34.22c-.84,1.12-1.47,.58-1.4-1.22l2-54.63c.07-1.79,.77-4.2,1.56-5.38l24.1-35.61c.8-1.17,1.43-.63,1.41,1.21l-.43,56.03c-.02,1.85-.71,4.25-1.56,5.38"/>
  <path class="cls-4" d="M30.88,276.98s-2.76-.23-2.29-4.44c.48-4.2,3.77,1.53,3.77,1.53"/>
  <path class="cls-4" d="M76.71,96.17s-2.11-.96-3.44,1c-1.33,1.97,1.6,4.39,1.6,4.39l1.84-5.39Z"/>
  <path class="cls-4" d="M106.72,54.06l1.84-5.39s-2.11-.96-3.44,1.01"/>
  <path class="cls-4" d="M135.48,4.35c1.75-2.55,3.27-5.82,8.15-3.64,4.88,2.17-3.57,3.22-3.57,3.22,0,0-6.33,2.97-4.58,.42"/>
  <path class="cls-4" d="M207.72,34.28s4.41-2.57,7.43-1.45c3.01,1.11-3.16,8.86-3.16,8.86l-4.27-7.41Z"/>
  <path class="cls-4" d="M281.11,69.01s2.38-5.83,7.83-3.46c5.45,2.36-3.11,5.59-3.11,5.59l-4.71-2.13Z"/>
  <path class="cls-4" d="M328.31,333.07s.85,3.58-1.91,5.32c-2.11,1.32-3.28-3.55-3.28-3.55l5.2-1.77Z"/>
  <path class="cls-4" d="M89.88,360.6s.78,3.29,4.78,4.5c3.39,1.02,3.87-7.2,3.87-7.2l-8.65,2.7Z"/>
  <path class="cls-4" d="M212.65,248.49l-68.46-23.03c-3.34-1.12-6.04-4.53-6.04-7.61v-63.9c0-3.08,2.62-4.61,5.85-3.41l.74,.28,65.61,24.3c3.23,1.2,5.94,4.6,6.04,7.61l2.12,62.35c.1,3-2.53,4.53-5.86,3.4"/>
  <path class="cls-2" d="M208.5,241.32l-60.36-20.46c-2-.67-3.62-2.72-3.62-4.56l-.14-56.34c0-1.84,1.57-2.76,3.51-2.04l58.78,21.62c1.94,.71,3.56,2.76,3.62,4.57l1.72,55.17c.06,1.8-1.51,2.72-3.51,2.04"/>
  <path class="cls-4" d="M170.02,285.85l-65.6-20.6c-3.17-1-4.43-3.17-2.81-4.86l33.59-34.71c1.62-1.68,5.65-2.14,8.98-1.04l68.72,22.98c3.33,1.11,4.59,3.28,2.81,4.85l-36.71,32.35c-1.79,1.57-5.8,2.03-8.98,1.03"/>
  <path class="cls-3" d="M169.59,281.6l-58.18-18.37c-1.91-.6-2.66-1.91-1.68-2.92l29.9-30.5c.98-1,3.39-1.28,5.38-.62l60.49,20.13c1.99,.66,2.75,1.97,1.68,2.91l-32.22,28.74c-1.05,.95-3.47,1.22-5.38,.62"/>
  <path class="cls-4" d="M135.17,225.91l-33.43,34.85c-1.62,1.68-2.84,.64-2.72-2.36l2.43-61.69c.12-2.99,1.45-6.86,2.97-8.63l31.32-36.72c1.51-1.78,2.74-.73,2.72,2.35l-.33,63.56c-.02,3.08-1.34,6.94-2.96,8.63"/>
  <path class="cls-1" d="M133.28,222.03l-29.38,30.92c-.97,1.01-1.7,.38-1.63-1.41l2-54.63c.07-1.8,.86-4.12,1.78-5.18l27.82-32.31c.92-1.06,1.65-.43,1.63,1.4l-.43,56.03c-.02,1.85-.81,4.16-1.78,5.18"/>
</svg>