<?xml version="1.0" encoding="UTF-8"?>
<svg id="Layer_1" data-name="Layer 1" xmlns="http://www.w3.org/2000/svg" viewBox="0 0 400 400">
  <defs>
    <style>
      .cls-1 {
        fill: #005eac;
      }

      .cls-2 {
        fill: #ffe012;
      }

      .cls-3 {
        fill: #ec1b34;
      }

      .cls-4 {
        fill: #231f20;
      }

      .cls-5 {
        fill: #404041;
      }
    </style>
  </defs>
  <polygon class="cls-4" points="20.99 72.64 41.79 270.12 70.87 281.51 136.14 328.29 179.73 348.38 218.19 357.44 299.5 304.92 363.51 280.56 378.67 66.89 197.26 1.98 20.99 72.64"/>
  <g>
    <path class="cls-4" d="M193.91,397.42s5.54,5.81,12.19,0c6.65-5.81-7.45-9.89-7.45-9.89l-4.74,9.89Z"/>
    <path class="cls-4" d="M16.85,70.75s-.38-4.26,4.14-5.92v9.45l-3.91,.57-.23-4.1Z"/>
    <path class="cls-4" d="M78.04,48.26s-.38-4.26,4.14-5.92v9.45l-3.91,.57-.23-4.1Z"/>
    <path class="cls-4" d="M139.24,25.76s-.38-4.26,4.14-5.93v9.46l-3.91,.57-.23-4.1Z"/>
    <path class="cls-4" d="M383.17,71.26s.02-4.77-4.5-6.44v9.46l4.22,.96,.28-3.98Z"/>
    <path class="cls-4" d="M321.62,48.26s.38-4.26-4.14-5.92v9.45l3.91,.57,.23-4.1Z"/>
    <path class="cls-4" d="M260.43,25.76s.38-4.26-4.14-5.93v9.46l3.91,.57,.23-4.1Z"/>
    <path class="cls-4" d="M260.07,357.92s-2.12,1.72-4.63,.36c-2.51-1.37-.4-6.22-.4-6.22l5.03,5.86Z"/>
    <path class="cls-4" d="M315.96,317.01s-2.12,1.72-4.63,.36c-2.51-1.37-.4-6.22-.4-6.22l5.03,5.86Z"/>
    <path class="cls-4" d="M140.28,358.19s2.12,1.72,4.63,.36c2.51-1.37,.4-6.22,.4-6.22l-5.03,5.86Z"/>
    <path class="cls-4" d="M84.04,317.01s2.12,1.72,4.63,.36c2.51-1.37,.4-6.22,.4-6.22l-5.03,5.86Z"/>
    <path class="cls-4" d="M143.38,123.17l52.04,23.28c2.52,1.13,4.57,4.87,4.57,8.34v71.85c0,3.48-1.99,5.24-4.43,3.93l-50.56-27.13c-2.45-1.31-4.49-5.05-4.56-8.34l-1.51-68.02c-.07-3.29,1.92-5.05,4.44-3.92"/>
    <path class="cls-5" d="M146.54,130.92l45.88,20.84c1.51,.68,2.73,2.92,2.74,5.01l.11,63.21c0,2.08-1.19,3.13-2.66,2.36l-44.77-23.69c-1.47-.78-2.7-3.02-2.74-5.01l-1.22-60.35c-.04-1.99,1.16-3.04,2.66-2.36"/>
    <path class="cls-4" d="M82.2,95.81l52.05,23.28c2.52,1.13,4.62,4.71,4.69,8.01l1.51,68.02c.07,3.29-1.86,4.89-4.31,3.58l-50.55-27.12c-2.45-1.31-4.55-4.9-4.7-8.01l-3-64.17c-.14-3.11,1.79-4.72,4.31-3.59"/>
    <path class="cls-5" d="M85.49,103.2l45.88,20.84c1.51,.68,2.78,2.84,2.82,4.81l1.43,59.81c.05,1.97-1.1,2.93-2.58,2.15l-44.76-23.68c-1.48-.78-2.73-2.93-2.82-4.81l-2.55-56.97c-.08-1.87,1.08-2.85,2.58-2.15"/>
    <path class="cls-4" d="M21.01,68.44l52.05,23.28c2.52,1.13,4.68,4.56,4.82,7.67l3,64.17c.15,3.12-1.72,4.57-4.18,3.26l-50.55-27.13c-2.45-1.31-4.61-4.75-4.83-7.67l-4.49-60.34c-.22-2.92,1.65-4.38,4.17-3.25"/>
    <path class="cls-5" d="M24.45,75.47l45.88,20.84c1.51,.68,2.81,2.75,2.9,4.61l2.76,56.42c.09,1.86-1.03,2.73-2.5,1.95l-44.77-23.69c-1.47-.78-2.77-2.85-2.9-4.61l-3.87-53.57c-.12-1.76,1-2.64,2.5-1.95"/>
    <path class="cls-4" d="M145.01,203.46l50.55,27.12c2.45,1.32,4.44,5.21,4.44,8.69v71.86c0,3.48-1.93,5.09-4.31,3.59l-49.05-30.96c-2.37-1.51-4.36-5.39-4.43-8.69l-1.5-68.01c-.08-3.3,1.85-4.9,4.3-3.59"/>
    <path class="cls-1" d="M148.08,211.43l44.55,24.23c1.47,.8,2.66,3.13,2.67,5.21l.11,63.22c0,2.08-1.16,3.04-2.58,2.15l-43.45-27.09c-1.43-.89-2.62-3.22-2.66-5.21l-1.22-60.35c-.04-1.99,1.12-2.95,2.58-2.15"/>
    <path class="cls-4" d="M85.59,171.58l50.55,27.12c2.45,1.32,4.5,5.05,4.57,8.35l1.5,68.01c.08,3.3-1.79,4.75-4.17,3.26l-49.05-30.96c-2.38-1.5-4.42-5.24-4.57-8.35l-2.99-64.17c-.15-3.11,1.72-4.56,4.17-3.25"/>
    <path class="cls-1" d="M88.8,179.19l44.56,24.23c1.46,.8,2.69,3.05,2.74,5.01l1.43,59.82c.04,1.97-1.08,2.85-2.5,1.95l-43.44-27.08c-1.43-.89-2.66-3.13-2.74-5.01l-2.55-56.97c-.09-1.87,1.04-2.75,2.5-1.95"/>
    <path class="cls-4" d="M26.17,139.7l50.55,27.12c2.45,1.32,4.55,4.9,4.7,8.02l3,64.17c.14,3.11-1.66,4.41-4.05,2.91l-49.05-30.96c-2.37-1.5-4.48-5.09-4.7-8l-4.49-60.34c-.22-2.92,1.58-4.23,4.04-2.92"/>
    <path class="cls-1" d="M29.52,146.95l44.55,24.23c1.47,.8,2.73,2.95,2.82,4.81l2.76,56.42c.09,1.86-.99,2.64-2.43,1.75l-43.44-27.08c-1.43-.89-2.69-3.05-2.82-4.81l-3.87-53.57c-.13-1.77,.95-2.55,2.43-1.75"/>
    <path class="cls-4" d="M146.64,283.74l49.05,30.96c2.38,1.5,4.31,5.53,4.31,9.02v71.86c0,3.48-1.87,4.94-4.18,3.25l-47.55-34.8c-2.3-1.68-4.23-5.73-4.3-9.02l-1.5-68.02c-.08-3.29,1.79-4.75,4.17-3.25"/>
    <path class="cls-1" d="M149.63,291.94l43.23,27.62c1.43,.91,2.58,3.33,2.58,5.41l.11,63.21c0,2.08-1.12,2.96-2.5,1.95l-42.12-30.48c-1.38-1-2.54-3.42-2.58-5.41l-1.22-60.35c-.04-1.99,1.09-2.86,2.5-1.95"/>
    <path class="cls-4" d="M88.99,247.35l49.05,30.96c2.38,1.51,4.36,5.39,4.44,8.69l1.5,68.02c.07,3.29-1.73,4.6-4.05,2.91l-47.54-34.8c-2.3-1.69-4.29-5.58-4.44-8.69l-2.99-64.17c-.15-3.11,1.66-4.41,4.04-2.92"/>
    <path class="cls-1" d="M92.11,255.19l43.23,27.62c1.42,.91,2.62,3.24,2.66,5.21l1.43,59.82c.05,1.96-1.03,2.75-2.42,1.74l-42.12-30.47c-1.39-1.01-2.58-3.34-2.66-5.21l-2.55-56.97c-.09-1.87,1.01-2.66,2.43-1.75"/>
    <path class="cls-4" d="M31.33,210.95l49.05,30.96c2.37,1.51,4.42,5.24,4.57,8.34l2.99,64.17c.15,3.12-1.6,4.27-3.91,2.58l-47.55-34.8c-2.3-1.68-4.35-5.42-4.57-8.34l-4.5-60.34c-.22-2.92,1.53-4.07,3.91-2.57"/>
    <path class="cls-1" d="M34.59,218.43l43.23,27.62c1.43,.91,2.65,3.15,2.74,5.01l2.76,56.42c.09,1.86-.96,2.55-2.35,1.55l-42.12-30.48c-1.38-1-2.61-3.25-2.74-5.01l-3.87-53.57c-.12-1.77,.93-2.46,2.35-1.55"/>
    <path class="cls-4" d="M256.62,123.17l-52.05,23.28c-2.52,1.13-4.56,4.87-4.56,8.34v71.85c0,3.48,1.99,5.24,4.43,3.93l50.56-27.13c2.44-1.31,4.49-5.05,4.56-8.34l1.51-68.02c.07-3.29-1.92-5.05-4.44-3.92"/>
    <path class="cls-5" d="M253.46,130.92l-45.88,20.84c-1.51,.68-2.73,2.92-2.74,5.01l-.11,63.21c0,2.08,1.19,3.13,2.66,2.36l44.77-23.69c1.47-.78,2.7-3.02,2.74-5.01l1.22-60.35c.04-1.99-1.16-3.04-2.66-2.36"/>
    <path class="cls-4" d="M317.8,95.81l-52.05,23.28c-2.52,1.13-4.62,4.71-4.69,8.01l-1.51,68.02c-.07,3.29,1.86,4.89,4.31,3.58l50.55-27.12c2.45-1.31,4.56-4.9,4.7-8.01l3-64.17c.14-3.11-1.79-4.72-4.31-3.59"/>
    <path class="cls-5" d="M314.51,103.2l-45.88,20.84c-1.51,.68-2.78,2.84-2.82,4.81l-1.43,59.81c-.05,1.97,1.1,2.93,2.58,2.15l44.76-23.68c1.48-.78,2.73-2.93,2.82-4.81l2.55-56.97c.08-1.87-1.08-2.85-2.58-2.15"/>
    <path class="cls-4" d="M378.98,68.44l-52.04,23.28c-2.53,1.13-4.69,4.56-4.83,7.67l-3,64.17c-.14,3.12,1.72,4.57,4.18,3.26l50.55-27.13c2.45-1.31,4.61-4.75,4.83-7.67l4.49-60.34c.22-2.92-1.65-4.38-4.17-3.25"/>
    <path class="cls-5" d="M375.55,75.47l-45.88,20.84c-1.51,.68-2.81,2.75-2.9,4.61l-2.76,56.42c-.09,1.86,1.03,2.73,2.5,1.95l44.77-23.69c1.47-.78,2.77-2.85,2.9-4.61l3.87-53.57c.12-1.76-1-2.64-2.5-1.95"/>
    <path class="cls-4" d="M254.99,203.46l-50.55,27.12c-2.45,1.32-4.44,5.21-4.44,8.69v71.86c0,3.48,1.93,5.09,4.31,3.59l49.05-30.96c2.37-1.51,4.36-5.39,4.43-8.69l1.51-68.01c.07-3.3-1.86-4.9-4.31-3.59"/>
    <path class="cls-3" d="M251.92,211.43l-44.55,24.23c-1.47,.8-2.66,3.13-2.67,5.21l-.11,63.22c0,2.08,1.16,3.04,2.58,2.15l43.45-27.09c1.43-.89,2.62-3.22,2.66-5.21l1.22-60.35c.04-1.99-1.12-2.95-2.58-2.15"/>
    <path class="cls-4" d="M314.41,171.58l-50.55,27.12c-2.45,1.32-4.5,5.05-4.57,8.35l-1.5,68.01c-.08,3.3,1.79,4.75,4.17,3.26l49.05-30.96c2.38-1.5,4.42-5.24,4.57-8.35l2.99-64.17c.15-3.11-1.72-4.56-4.17-3.25"/>
    <path class="cls-3" d="M311.2,179.19l-44.55,24.23c-1.47,.8-2.7,3.05-2.74,5.01l-1.44,59.82c-.04,1.97,1.08,2.85,2.5,1.95l43.44-27.08c1.43-.89,2.66-3.13,2.74-5.01l2.55-56.97c.08-1.87-1.04-2.75-2.5-1.95"/>
    <path class="cls-4" d="M373.83,139.7l-50.55,27.12c-2.45,1.32-4.55,4.9-4.7,8.02l-3,64.17c-.14,3.11,1.66,4.41,4.05,2.91l49.05-30.96c2.37-1.5,4.48-5.09,4.7-8l4.5-60.34c.22-2.92-1.59-4.23-4.05-2.92"/>
    <path class="cls-3" d="M370.48,146.95l-44.55,24.23c-1.47,.8-2.73,2.95-2.82,4.81l-2.76,56.42c-.09,1.86,.99,2.64,2.43,1.75l43.44-27.08c1.43-.89,2.69-3.05,2.82-4.81l3.87-53.57c.13-1.77-.95-2.55-2.43-1.75"/>
    <path class="cls-4" d="M253.35,283.74l-49.05,30.96c-2.38,1.5-4.31,5.53-4.31,9.02v71.86c0,3.48,1.87,4.94,4.18,3.25l47.55-34.8c2.3-1.68,4.23-5.73,4.3-9.02l1.5-68.02c.08-3.29-1.79-4.75-4.17-3.25"/>
    <path class="cls-3" d="M250.37,291.94l-43.23,27.62c-1.42,.91-2.58,3.33-2.58,5.41l-.11,63.21c0,2.08,1.12,2.96,2.5,1.95l42.12-30.48c1.38-1,2.54-3.42,2.58-5.41l1.22-60.35c.04-1.99-1.09-2.86-2.5-1.95"/>
    <path class="cls-4" d="M311.01,247.35l-49.05,30.96c-2.38,1.51-4.36,5.39-4.44,8.69l-1.5,68.02c-.07,3.29,1.73,4.6,4.05,2.91l47.54-34.8c2.3-1.69,4.29-5.58,4.44-8.69l2.99-64.17c.15-3.11-1.66-4.41-4.04-2.92"/>
    <path class="cls-3" d="M307.89,255.19l-43.23,27.62c-1.43,.91-2.62,3.24-2.66,5.21l-1.44,59.82c-.04,1.96,1.04,2.75,2.43,1.74l42.12-30.47c1.39-1.01,2.58-3.34,2.66-5.21l2.55-56.97c.08-1.87-1.01-2.66-2.43-1.75"/>
    <path class="cls-4" d="M368.67,210.95l-49.05,30.96c-2.38,1.51-4.42,5.24-4.57,8.34l-2.99,64.17c-.15,3.12,1.6,4.27,3.91,2.58l47.55-34.8c2.3-1.68,4.34-5.42,4.56-8.34l4.5-60.34c.22-2.92-1.53-4.07-3.91-2.57"/>
    <path class="cls-3" d="M365.41,218.43l-43.23,27.62c-1.43,.91-2.65,3.15-2.74,5.01l-2.76,56.42c-.09,1.86,.96,2.55,2.35,1.55l42.12-30.48c1.38-1,2.61-3.25,2.74-5.01l3.87-53.57c.12-1.77-.93-2.46-2.35-1.55"/>
    <path class="cls-4" d="M256.63,123.01l-51.91,23.17c-2.51,1.12-6.6,1.12-9.12,0l-52.11-23.17c-2.52-1.12-2.53-2.89,0-3.95l51.96-21.82c2.52-1.06,6.61-1.06,9.13,0l52.05,21.82c2.52,1.06,2.52,2.83,0,3.95"/>
    <path class="cls-5" d="M248.74,122.3l-45.86,20.37c-1.51,.67-3.97,.67-5.48,0l-46.02-20.37c-1.51-.67-1.52-1.73,0-2.36l45.9-19.38c1.51-.64,3.97-.64,5.48,0l45.99,19.38c1.51,.63,1.51,1.7,0,2.36"/>
    <path class="cls-4" d="M317.65,95.77l-51.91,23.17c-2.51,1.12-6.6,1.17-9.12,.11l-52.05-21.82c-2.52-1.06-2.52-2.78,0-3.83l51.97-21.83c2.51-1.06,6.6-1.11,9.12-.11l52,20.48c2.52,.99,2.52,2.71,0,3.83"/>
    <path class="cls-2" d="M309.77,95.19l-45.86,20.37c-1.51,.67-3.97,.7-5.48,.07l-45.98-19.18c-1.51-.63-1.51-1.66,0-2.3l45.91-19.38c1.51-.63,3.96-.67,5.47-.07l45.94,18.19c1.51,.6,1.51,1.63,0,2.29"/>
    <path class="cls-4" d="M378.68,68.54l-51.91,23.17c-2.51,1.12-6.6,1.23-9.12,.24l-52-20.48c-2.52-.99-2.52-2.65,0-3.71l51.96-21.82c2.52-1.06,6.6-1.16,9.12-.25l51.95,19.14c2.52,.93,2.52,2.59,0,3.71"/>
    <path class="cls-5" d="M370.8,68.09l-45.86,20.37c-1.51,.67-3.97,.74-5.47,.14l-45.94-18c-1.51-.59-1.51-1.58,0-2.22l45.91-19.38c1.51-.64,3.96-.7,5.47-.14l45.91,17c1.51,.55,1.51,1.55,0,2.22"/>
    <path class="cls-4" d="M195.44,97.23l-51.96,21.83c-2.52,1.05-6.61,1-9.13-.12l-52.11-23.17c-2.52-1.12-2.53-2.84,0-3.83l52.01-20.48c2.52-1,6.61-.95,9.13,.11l52.05,21.83c2.52,1.05,2.53,2.77,0,3.83"/>
    <path class="cls-2" d="M187.55,96.45l-45.91,19.18c-1.51,.63-3.97,.6-5.48-.07l-46.02-20.37c-1.52-.67-1.52-1.7,0-2.29l45.94-18.19c1.51-.6,3.97-.57,5.48,.07l45.99,19.37c1.51,.64,1.51,1.67,0,2.3"/>
    <path class="cls-4" d="M256.52,71.58l-51.97,21.83c-2.51,1.05-6.6,1.05-9.12,0l-52.05-21.83c-2.52-1.06-2.52-2.72,0-3.71l52.01-20.48c2.52-.99,6.61-.99,9.12,0l52,20.48c2.52,.99,2.53,2.65,0,3.71"/>
    <path class="cls-2" d="M248.63,70.92l-45.91,19.18c-1.51,.63-3.97,.63-5.48,0l-45.99-19.18c-1.51-.63-1.51-1.63,0-2.22l45.95-18.19c1.51-.6,3.96-.6,5.47,0l45.95,18.19c1.51,.6,1.51,1.59,0,2.22"/>
    <path class="cls-4" d="M317.6,45.93l-51.97,21.82c-2.51,1.06-6.6,1.11-9.11,.12l-52.01-20.48c-2.52-1-2.52-2.6,0-3.6l52.01-20.48c2.52-.99,6.61-1.04,9.12-.11l51.96,19.13c2.52,.93,2.52,2.54,0,3.6"/>
    <path class="cls-2" d="M309.72,45.39l-45.91,19.18c-1.51,.64-3.97,.67-5.47,.07l-45.94-17.99c-1.51-.6-1.51-1.56,0-2.16l45.94-18.19c1.51-.6,3.97-.63,5.48-.07l45.9,17c1.51,.56,1.51,1.52,0,2.15"/>
    <path class="cls-4" d="M134.24,71.46l-52.01,20.48c-2.52,.99-6.61,.88-9.13-.24l-52.11-23.17c-2.52-1.12-2.53-2.78,0-3.71l52.05-19.13c2.53-.94,6.61-.82,9.14,.23l52.04,21.83c2.53,1.06,2.53,2.71,0,3.71"/>
    <path class="cls-5" d="M126.35,70.6l-45.95,18c-1.51,.59-3.97,.53-5.48-.14l-46.03-20.37c-1.51-.67-1.51-1.67,0-2.23l45.99-17c1.51-.56,3.97-.5,5.49,.14l45.99,19.38c1.51,.64,1.51,1.63,0,2.22"/>
    <path class="cls-4" d="M195.38,47.39l-52.01,20.48c-2.52,.99-6.61,.95-9.13-.11l-52.05-21.83c-2.52-1.06-2.52-2.67,0-3.59l52.06-19.14c2.52-.93,6.61-.88,9.13,.11l52,20.48c2.52,1,2.52,2.6,0,3.6"/>
    <path class="cls-2" d="M187.5,46.65l-45.95,18c-1.51,.59-3.97,.56-5.48-.07l-45.99-19.19c-1.51-.63-1.51-1.59,0-2.15l45.99-17c1.51-.56,3.97-.53,5.48,.08l45.94,18.19c1.51,.6,1.51,1.56,0,2.15"/>
    <path class="cls-4" d="M256.52,23.31l-52.01,20.48c-2.52,.99-6.61,.99-9.13,0l-52-20.48c-2.51-1-2.51-2.55,0-3.48L195.45,.7c2.52-.93,6.6-.93,9.12,0l51.96,19.14c2.51,.93,2.51,2.48,0,3.48"/>
    <path class="cls-5" d="M248.64,22.7l-45.95,18c-1.51,.59-3.97,.59-5.48,0l-45.93-18c-1.51-.6-1.51-1.52,0-2.08L197.26,3.62c1.51-.56,3.97-.56,5.48,0l45.9,17c1.51,.56,1.51,1.49,0,2.08"/>
    <path class="cls-4" d="M27.09,136.72s-5.42-.35-4.96,5.88c.46,6.24,8.82-1.04,8.82-1.04l-3.86-4.84Z"/>
    <path class="cls-4" d="M32.37,207.64s-5.42-.35-4.96,5.88c.46,6.24,8.82-1.03,8.82-1.03l-3.86-4.85Z"/>
    <path class="cls-4" d="M372.92,136.72s5.42-.35,4.96,5.88c-.46,6.24-8.82-1.04-8.82-1.04l3.86-4.84Z"/>
    <path class="cls-4" d="M367.63,207.64s5.42-.35,4.96,5.88c-.46,6.24-8.82-1.03-8.82-1.03l3.86-4.85Z"/>
  </g>
</svg>