<?xml version="1.0" encoding="UTF-8"?>
<svg id="Layer_1" data-name="Layer 1" xmlns="http://www.w3.org/2000/svg" viewBox="0 0 400 400">
  <defs>
    <style>
      .cls-1 {
        fill: #005eac;
      }

      .cls-2 {
        fill: #ffe012;
      }

      .cls-3 {
        fill: #ec1b34;
      }

      .cls-4 {
        fill: #231f20;
      }

      .cls-5 {
        fill: #404041;
      }
    </style>
  </defs>
  <polygon class="cls-4" points="21.2 74.19 41.97 271.45 71.03 282.82 136.21 329.55 179.76 349.62 218.18 358.66 299.38 306.21 363.33 281.87 378.47 68.45 197.27 3.61 21.2 74.19"/>
  <g>
    <path class="cls-4" d="M193.91,396.96s5.54,5.8,12.17,0c6.64-5.8-7.44-9.87-7.44-9.87l-4.74,9.87Z"/>
    <path class="cls-4" d="M17.06,70.66s-.37-4.26,4.14-5.92v9.44l-3.91,.56-.23-4.09Z"/>
    <path class="cls-4" d="M78.19,48.19s-.37-4.26,4.14-5.92v9.44l-3.91,.56-.23-4.09Z"/>
    <path class="cls-4" d="M139.31,25.73s-.37-4.26,4.14-5.92v9.44l-3.91,.56-.23-4.09Z"/>
    <path class="cls-4" d="M382.96,71.17s.02-4.76-4.49-6.43v9.45l4.22,.95,.28-3.97Z"/>
    <path class="cls-4" d="M321.48,48.19s.37-4.26-4.14-5.92v9.44l3.91,.56,.23-4.09Z"/>
    <path class="cls-4" d="M260.36,25.73s.37-4.26-4.14-5.92v9.44l3.91,.56,.23-4.09Z"/>
    <path class="cls-4" d="M260,357.5s-2.12,1.73-4.62,.36c-2.51-1.37-.41-6.21-.41-6.21l5.03,5.85Z"/>
    <path class="cls-4" d="M315.83,316.64s-2.12,1.73-4.62,.36c-2.51-1.36-.41-6.2-.41-6.2l5.03,5.85Z"/>
    <path class="cls-4" d="M140.35,357.77s2.12,1.73,4.62,.36c2.51-1.37,.41-6.21,.41-6.21l-5.03,5.85Z"/>
    <path class="cls-4" d="M84.17,316.64s2.12,1.73,4.62,.36c2.51-1.36,.41-6.2,.41-6.2l-5.03,5.85Z"/>
    <path class="cls-4" d="M143.45,123.02l51.99,23.25c2.52,1.13,4.56,4.86,4.56,8.34v71.77c0,3.48-1.99,5.23-4.43,3.92l-50.49-27.09c-2.45-1.31-4.49-5.05-4.56-8.34l-1.5-67.94c-.07-3.3,1.92-5.05,4.43-3.92"/>
    <path class="cls-5" d="M146.6,130.77l45.83,20.81c1.51,.69,2.73,2.92,2.73,5l.1,63.14c0,2.08-1.19,3.13-2.65,2.35l-44.72-23.66c-1.47-.78-2.69-3.02-2.73-5.01l-1.21-60.28c-.04-1.99,1.15-3.04,2.65-2.35"/>
    <path class="cls-4" d="M82.34,95.69l51.99,23.25c2.52,1.13,4.62,4.71,4.69,8l1.5,67.94c.07,3.29-1.86,4.89-4.3,3.58l-50.49-27.09c-2.45-1.31-4.56-4.89-4.69-8l-3-64.1c-.15-3.11,1.78-4.71,4.3-3.58"/>
    <path class="cls-5" d="M85.63,103.07l45.83,20.81c1.51,.69,2.77,2.83,2.81,4.8l1.43,59.75c.04,1.97-1.11,2.93-2.58,2.15l-44.72-23.66c-1.47-.78-2.73-2.93-2.82-4.8l-2.53-56.9c-.09-1.87,1.07-2.84,2.58-2.15"/>
    <path class="cls-4" d="M21.22,68.36l51.99,23.25c2.52,1.13,4.68,4.56,4.82,7.66l3,64.1c.14,3.11-1.73,4.56-4.17,3.24l-50.49-27.09c-2.45-1.31-4.61-4.74-4.82-7.66l-4.49-60.27c-.22-2.92,1.65-4.37,4.16-3.24"/>
    <path class="cls-5" d="M24.65,75.38l45.83,20.81c1.5,.69,2.8,2.74,2.89,4.6l2.75,56.35c.1,1.86-1.02,2.73-2.5,1.95l-44.71-23.66c-1.47-.78-2.77-2.84-2.9-4.6l-3.86-53.51c-.13-1.76,.99-2.64,2.5-1.95"/>
    <path class="cls-4" d="M145.08,203.22l50.49,27.09c2.45,1.32,4.43,5.2,4.43,8.68v71.77c0,3.48-1.93,5.08-4.29,3.58l-49-30.92c-2.38-1.5-4.36-5.39-4.43-8.68l-1.5-67.94c-.07-3.29,1.86-4.89,4.3-3.58"/>
    <path class="cls-1" d="M148.14,211.18l44.5,24.2c1.47,.8,2.65,3.13,2.66,5.21l.1,63.14c0,2.07-1.15,3.04-2.59,2.15l-43.39-27.05c-1.42-.89-2.61-3.22-2.65-5.21l-1.21-60.28c-.04-1.99,1.11-2.95,2.58-2.15"/>
    <path class="cls-4" d="M85.72,171.37l50.49,27.09c2.45,1.32,4.49,5.05,4.56,8.34l1.5,67.94c.07,3.29-1.8,4.75-4.17,3.24l-48.99-30.92c-2.38-1.5-4.42-5.23-4.56-8.34l-2.99-64.1c-.15-3.11,1.72-4.56,4.16-3.24"/>
    <path class="cls-1" d="M88.93,178.98l44.5,24.2c1.47,.8,2.69,3.04,2.74,5.01l1.42,59.75c.05,1.97-1.07,2.84-2.5,1.95l-43.39-27.05c-1.42-.89-2.65-3.13-2.73-5l-2.54-56.9c-.09-1.87,1.03-2.75,2.5-1.95"/>
    <path class="cls-4" d="M26.37,139.53l50.49,27.09c2.45,1.32,4.56,4.89,4.69,8.01l3,64.09c.14,3.11-1.67,4.42-4.04,2.91l-48.99-30.92c-2.38-1.49-4.48-5.08-4.69-8l-4.49-60.26c-.23-2.92,1.59-4.23,4.03-2.92"/>
    <path class="cls-1" d="M29.72,146.78l44.5,24.2c1.47,.8,2.72,2.95,2.82,4.81l2.75,56.35c.09,1.86-.99,2.64-2.42,1.75l-43.39-27.05c-1.43-.89-2.69-3.05-2.82-4.81l-3.86-53.51c-.13-1.76,.95-2.54,2.42-1.74"/>
    <path class="cls-4" d="M146.71,283.41l49,30.92c2.38,1.5,4.29,5.54,4.29,9.01v71.77c0,3.48-1.87,4.93-4.16,3.24l-47.49-34.76c-2.3-1.68-4.23-5.72-4.3-9.01l-1.49-67.94c-.08-3.29,1.8-4.75,4.16-3.24"/>
    <path class="cls-1" d="M149.68,291.6l43.18,27.59c1.41,.91,2.57,3.32,2.58,5.41l.1,63.14c0,2.08-1.11,2.95-2.5,1.95l-42.07-30.45c-1.38-1.01-2.53-3.42-2.58-5.41l-1.21-60.28c-.04-1.99,1.08-2.86,2.5-1.95"/>
    <path class="cls-4" d="M89.12,247.06l49,30.92c2.37,1.5,4.36,5.39,4.42,8.68l1.5,67.94c.07,3.29-1.74,4.6-4.03,2.91l-47.49-34.76c-2.3-1.68-4.29-5.57-4.43-8.68l-2.99-64.09c-.15-3.11,1.66-4.42,4.03-2.92"/>
    <path class="cls-1" d="M92.23,254.89l43.18,27.59c1.41,.91,2.61,3.24,2.65,5.21l1.43,59.75c.04,1.97-1.04,2.75-2.42,1.75l-42.07-30.45c-1.38-1.01-2.57-3.33-2.65-5.21l-2.54-56.9c-.09-1.87,1-2.65,2.42-1.74"/>
    <path class="cls-4" d="M31.52,210.7l49,30.92c2.38,1.5,4.42,5.23,4.56,8.34l2.99,64.1c.15,3.11-1.61,4.26-3.9,2.58l-47.49-34.77c-2.31-1.68-4.35-5.41-4.56-8.34l-4.49-60.26c-.22-2.92,1.54-4.08,3.9-2.58"/>
    <path class="cls-1" d="M34.78,218.18l43.17,27.59c1.42,.91,2.65,3.15,2.74,5.01l2.75,56.35c.1,1.86-.95,2.55-2.34,1.54l-42.06-30.44c-1.39-1-2.61-3.24-2.74-5.01l-3.86-53.51c-.13-1.76,.92-2.46,2.34-1.54"/>
    <path class="cls-4" d="M256.55,123.02l-51.99,23.25c-2.52,1.13-4.56,4.86-4.56,8.34v71.77c0,3.48,1.99,5.23,4.43,3.92l50.49-27.09c2.45-1.31,4.49-5.05,4.56-8.34l1.5-67.94c.07-3.3-1.92-5.05-4.43-3.92"/>
    <path class="cls-5" d="M253.4,130.77l-45.83,20.81c-1.51,.69-2.73,2.92-2.73,5l-.1,63.14c0,2.08,1.19,3.13,2.65,2.35l44.72-23.66c1.47-.78,2.69-3.02,2.73-5.01l1.21-60.28c.04-1.99-1.15-3.04-2.65-2.35"/>
    <path class="cls-4" d="M317.66,95.69l-51.99,23.25c-2.52,1.13-4.62,4.71-4.69,8l-1.5,67.94c-.07,3.29,1.86,4.89,4.3,3.58l50.49-27.09c2.45-1.31,4.56-4.89,4.69-8l3-64.1c.15-3.11-1.79-4.71-4.3-3.58"/>
    <path class="cls-5" d="M314.37,103.07l-45.83,20.81c-1.51,.69-2.77,2.83-2.81,4.8l-1.43,59.75c-.04,1.97,1.11,2.93,2.58,2.15l44.72-23.66c1.47-.78,2.73-2.93,2.82-4.8l2.53-56.9c.09-1.87-1.07-2.84-2.58-2.15"/>
    <path class="cls-4" d="M378.78,68.36l-51.99,23.25c-2.52,1.13-4.68,4.56-4.82,7.66l-3,64.1c-.14,3.11,1.73,4.56,4.17,3.24l50.49-27.09c2.45-1.31,4.61-4.74,4.82-7.66l4.49-60.27c.22-2.92-1.65-4.37-4.16-3.24"/>
    <path class="cls-5" d="M375.35,75.38l-45.83,20.81c-1.51,.69-2.8,2.74-2.89,4.6l-2.75,56.35c-.1,1.86,1.02,2.73,2.5,1.95l44.71-23.66c1.47-.78,2.77-2.84,2.9-4.6l3.86-53.51c.13-1.76-.99-2.64-2.5-1.95"/>
    <path class="cls-4" d="M254.92,203.22l-50.49,27.09c-2.45,1.32-4.43,5.2-4.43,8.68v71.77c0,3.48,1.93,5.08,4.29,3.58l49-30.92c2.38-1.5,4.36-5.39,4.43-8.68l1.5-67.94c.07-3.29-1.86-4.89-4.3-3.58"/>
    <path class="cls-3" d="M251.86,211.18l-44.5,24.2c-1.47,.8-2.65,3.13-2.66,5.21l-.1,63.14c0,2.07,1.15,3.04,2.59,2.15l43.39-27.05c1.42-.89,2.61-3.22,2.65-5.21l1.21-60.28c.04-1.99-1.11-2.95-2.58-2.15"/>
    <path class="cls-4" d="M314.28,171.37l-50.49,27.09c-2.45,1.32-4.49,5.05-4.56,8.34l-1.5,67.94c-.07,3.29,1.8,4.75,4.17,3.24l48.99-30.92c2.38-1.5,4.42-5.23,4.56-8.34l2.99-64.1c.15-3.11-1.72-4.56-4.16-3.24"/>
    <path class="cls-3" d="M311.07,178.98l-44.5,24.2c-1.47,.8-2.69,3.04-2.74,5.01l-1.42,59.75c-.05,1.97,1.07,2.84,2.5,1.95l43.39-27.05c1.42-.89,2.65-3.13,2.73-5l2.54-56.9c.09-1.87-1.03-2.75-2.5-1.95"/>
    <path class="cls-4" d="M373.63,139.53l-50.49,27.09c-2.45,1.32-4.56,4.89-4.69,8.01l-3,64.09c-.14,3.11,1.67,4.42,4.04,2.91l48.99-30.92c2.38-1.49,4.48-5.08,4.69-8l4.49-60.26c.23-2.92-1.59-4.23-4.03-2.92"/>
    <path class="cls-3" d="M370.28,146.78l-44.5,24.2c-1.47,.8-2.72,2.95-2.82,4.81l-2.75,56.35c-.09,1.86,.99,2.64,2.42,1.75l43.39-27.05c1.43-.89,2.69-3.05,2.82-4.81l3.86-53.51c.13-1.76-.95-2.54-2.42-1.74"/>
    <path class="cls-4" d="M253.29,283.41l-49,30.92c-2.37,1.5-4.29,5.54-4.29,9.01v71.77c0,3.48,1.87,4.93,4.16,3.24l47.49-34.76c2.31-1.68,4.23-5.72,4.3-9.01l1.49-67.94c.08-3.29-1.79-4.75-4.16-3.24"/>
    <path class="cls-3" d="M250.32,291.6l-43.18,27.59c-1.41,.91-2.57,3.32-2.58,5.41l-.1,63.14c0,2.08,1.11,2.95,2.5,1.95l42.07-30.45c1.38-1.01,2.53-3.42,2.58-5.41l1.21-60.28c.04-1.99-1.08-2.86-2.5-1.95"/>
    <path class="cls-4" d="M310.88,247.06l-49,30.92c-2.38,1.5-4.36,5.39-4.42,8.68l-1.5,67.94c-.07,3.29,1.74,4.6,4.03,2.91l47.49-34.76c2.3-1.68,4.29-5.57,4.43-8.68l2.99-64.09c.15-3.11-1.66-4.42-4.03-2.92"/>
    <path class="cls-3" d="M307.77,254.89l-43.18,27.59c-1.41,.91-2.61,3.24-2.65,5.21l-1.43,59.75c-.04,1.97,1.04,2.75,2.42,1.75l42.07-30.45c1.38-1.01,2.57-3.33,2.65-5.21l2.54-56.9c.09-1.87-1-2.65-2.42-1.74"/>
    <path class="cls-4" d="M368.48,210.7l-49,30.92c-2.38,1.5-4.42,5.23-4.56,8.34l-2.99,64.1c-.15,3.11,1.61,4.26,3.9,2.58l47.49-34.77c2.31-1.68,4.35-5.41,4.56-8.34l4.49-60.26c.22-2.92-1.54-4.08-3.9-2.58"/>
    <path class="cls-3" d="M365.22,218.18l-43.17,27.59c-1.42,.91-2.65,3.15-2.74,5.01l-2.75,56.35c-.1,1.86,.95,2.55,2.34,1.54l42.06-30.44c1.39-1,2.61-3.24,2.74-5.01l3.86-53.51c.13-1.76-.92-2.46-2.34-1.54"/>
    <path class="cls-4" d="M256.56,122.86l-51.85,23.14c-2.52,1.13-6.59,1.13-9.12,0l-52.04-23.14c-2.52-1.12-2.52-2.89,0-3.94l51.9-21.8c2.51-1.06,6.59-1.06,9.11,0l52,21.8c2.52,1.05,2.52,2.82,0,3.94"/>
    <path class="cls-2" d="M248.69,122.16l-45.81,20.35c-1.51,.67-3.96,.67-5.47,0l-45.97-20.35c-1.52-.67-1.52-1.73,0-2.36l45.85-19.36c1.51-.64,3.96-.64,5.47,0l45.93,19.36c1.52,.63,1.52,1.69,0,2.36"/>
    <path class="cls-4" d="M317.52,95.66l-51.85,23.14c-2.52,1.13-6.59,1.17-9.12,.12l-51.99-21.8c-2.52-1.05-2.52-2.77,0-3.82l51.9-21.8c2.52-1.06,6.59-1.11,9.11-.12l51.95,20.46c2.52,1,2.52,2.71,0,3.83"/>
    <path class="cls-2" d="M309.65,95.08l-45.81,20.35c-1.51,.68-3.96,.7-5.47,.08l-45.92-19.17c-1.51-.63-1.51-1.66,0-2.3l45.85-19.35c1.51-.64,3.96-.67,5.47-.07l45.89,18.17c1.52,.59,1.52,1.62,0,2.29"/>
    <path class="cls-4" d="M378.47,68.45l-51.85,23.14c-2.52,1.13-6.59,1.23-9.11,.23l-51.95-20.45c-2.52-1-2.52-2.65,0-3.71l51.9-21.79c2.52-1.06,6.59-1.16,9.1-.23l51.89,19.11c2.52,.92,2.52,2.59,0,3.7"/>
    <path class="cls-2" d="M370.6,68l-45.81,20.35c-1.51,.67-3.96,.73-5.47,.14l-45.89-17.98c-1.51-.6-1.51-1.59,0-2.23l45.85-19.35c1.5-.64,3.95-.7,5.46-.15l45.85,16.98c1.51,.56,1.51,1.56,0,2.23"/>
    <path class="cls-4" d="M195.44,97.12l-51.9,21.8c-2.52,1.06-6.6,1.01-9.12-.11l-52.04-23.14c-2.52-1.12-2.52-2.84,0-3.83l51.95-20.46c2.52-.99,6.6-.94,9.13,.12l51.99,21.8c2.52,1.06,2.52,2.77,0,3.83"/>
    <path class="cls-2" d="M187.56,96.34l-45.85,19.17c-1.51,.62-3.97,.6-5.47-.07l-45.98-20.35c-1.51-.67-1.51-1.7,0-2.29l45.89-18.17c1.51-.6,3.96-.56,5.47,.07l45.93,19.35c1.52,.64,1.52,1.67,0,2.3"/>
    <path class="cls-4" d="M256.45,71.49l-51.9,21.8c-2.52,1.06-6.59,1.06-9.12,0l-51.99-21.8c-2.52-1.06-2.52-2.72,0-3.7l51.95-20.46c2.52-.99,6.6-.99,9.12,0l51.94,20.46c2.52,.99,2.52,2.65,0,3.7"/>
    <path class="cls-2" d="M248.58,70.84l-45.85,19.17c-1.51,.62-3.96,.62-5.47,0l-45.92-19.17c-1.52-.63-1.52-1.62,0-2.23l45.9-18.16c1.51-.6,3.96-.6,5.47,0l45.9,18.16c1.51,.61,1.51,1.6,0,2.23"/>
    <path class="cls-4" d="M317.46,45.87l-51.9,21.8c-2.52,1.06-6.59,1.11-9.11,.12l-51.95-20.46c-2.52-.99-2.52-2.59,0-3.59l51.95-20.45c2.52-1,6.59-1.05,9.11-.12l51.89,19.11c2.52,.93,2.52,2.53,0,3.59"/>
    <path class="cls-2" d="M309.59,45.34l-45.85,19.17c-1.51,.63-3.96,.66-5.47,.07l-45.89-17.98c-1.51-.59-1.51-1.55,0-2.15l45.9-18.17c1.51-.6,3.96-.63,5.47-.07l45.85,16.98c1.51,.56,1.51,1.53,0,2.15"/>
    <path class="cls-4" d="M134.32,71.38l-51.95,20.45c-2.52,1-6.6,.89-9.12-.23l-52.04-23.14c-2.52-1.12-2.52-2.78,0-3.7l52.01-19.11c2.52-.93,6.6-.82,9.12,.23l52,21.8c2.52,1.05,2.52,2.72,0,3.7"/>
    <path class="cls-2" d="M126.44,70.51l-45.9,17.98c-1.51,.59-3.97,.53-5.47-.14l-45.98-20.35c-1.51-.67-1.51-1.66,0-2.22l45.93-16.98c1.51-.56,3.97-.49,5.47,.14l45.94,19.35c1.51,.64,1.51,1.64,0,2.23"/>
    <path class="cls-4" d="M195.39,47.33l-51.95,20.46c-2.52,.99-6.59,.94-9.12-.12l-51.99-21.8c-2.52-1.06-2.52-2.66,0-3.59l52-19.11c2.52-.93,6.6-.88,9.12,.11l51.95,20.46c2.52,.99,2.52,2.6,0,3.59"/>
    <path class="cls-2" d="M187.51,46.59l-45.9,17.98c-1.52,.59-3.97,.56-5.47-.07l-45.93-19.17c-1.51-.62-1.51-1.6,0-2.15l45.94-16.98c1.51-.56,3.96-.53,5.47,.07l45.9,18.17c1.51,.6,1.51,1.56,0,2.15"/>
    <path class="cls-4" d="M256.46,23.28l-51.95,20.46c-2.52,.99-6.59,.99-9.12,0l-51.94-20.46c-2.52-.99-2.52-2.54,0-3.47L195.45,.7c2.52-.93,6.6-.93,9.12,0l51.89,19.11c2.51,.93,2.51,2.48,0,3.47"/>
    <path class="cls-2" d="M248.58,22.67l-45.9,17.98c-1.51,.59-3.96,.59-5.47,0l-45.88-17.98c-1.51-.59-1.51-1.53,0-2.08L197.27,3.61c1.51-.56,3.96-.56,5.47,0l45.85,16.98c1.5,.56,1.5,1.49,0,2.08"/>
    <path class="cls-4" d="M27.28,136.56s-5.41-.35-4.95,5.88c.46,6.23,8.81-1.04,8.81-1.04l-3.86-4.84Z"/>
    <path class="cls-4" d="M32.57,207.4s-5.41-.35-4.95,5.88c.46,6.23,8.81-1.04,8.81-1.04l-3.86-4.84Z"/>
    <path class="cls-4" d="M372.72,136.56s5.41-.35,4.95,5.88c-.46,6.23-8.81-1.04-8.81-1.04l3.86-4.84Z"/>
    <path class="cls-4" d="M367.43,207.4s5.41-.35,4.95,5.88c-.46,6.23-8.81-1.04-8.81-1.04l3.86-4.84Z"/>
  </g>
</svg>