<?xml version="1.0" encoding="UTF-8"?>
<svg id="Layer_1" data-name="Layer 1" xmlns="http://www.w3.org/2000/svg" viewBox="0 0 400 400">
  <defs>
    <style>
      .cls-1 {
        fill: #005eac;
      }

      .cls-2 {
        fill: #f48120;
      }

      .cls-3 {
        fill: #fff;
      }

      .cls-4 {
        fill: #231f20;
      }

      .cls-5 {
        fill: #404041;
      }
    </style>
  </defs>
  <path class="cls-4" d="M370.29,317.87c-7.77-9.65-15.59-19.28-23.42-28.88,2.79,.92,5.87,1.04,9.12-.01,5.58-1.81,10.99-7.09,12.42-13.14l.54,1.07s2.77-.23,2.28-4.44c-.28-2.44-1.49-1.54-2.47-.35-.07-1.35-.36-2.71-.91-4.06-5.94-14.52-14.86-26.76-24.55-38.6-.11-2.26-.23-4.52-.37-6.77,3.54,.31,7.12-.38,9.96-2.21,4.7-3.03,7.35-7.36,8.01-12.11l.24,.48s2.77-.23,2.28-4.44c-.28-2.44-1.49-1.54-2.46-.35-.24-2.27-.89-4.58-1.97-6.84-7.2-15.09-15.39-29.68-24.53-43.67-1.78-13.58-3.2-27.26-3.59-41.9-.11-4.19-1.84-8.3-4.6-11.43,.58-.85,.99-1.96,.32-2.95-1.33-1.97-3.44-1.01-3.44-1.01l.53,1.55c-2.76-2.09-6.14-3.33-9.82-3.16-1.03,.05-2.04,.19-3.04,.4-1.93-13.78-5.91-26.96-13.87-38.41-.95-1.36-2.07-2.61-3.32-3.71l1.14-3.12c-1.33-1.97-3.44-1.01-3.44-1.01l1.07,3.14c-5.36-4.02-12.58-5.36-18.71-1.4-1.16,.75-2.24,1.65-3.22,2.68-.13-9.81-.11-19.61,.22-29.42,.3-8.9-8.04-17.4-17-17-9.47,.42-16.67,7.47-17,17-.52,15.16-.27,30.32,.09,45.47-3.46,1.35-6.89,2.82-10.38,4.15-6.49,2.48-13.06,4.75-19.67,6.91,0-8.48-.02-16.97-.07-25.45-.04-8.69-7.45-17.01-16.4-16.99l2-3.46s-4.4-2.57-7.42-1.45c-1.68,.62-.51,3.28,.85,5.53-7.36,1.95-13.07,8.26-13.03,16.38,.06,12.02,.07,24.04,.05,36.07-10.44,3.23-20.86,6.54-31.19,10.15-2.84,.99-5.67,2-8.5,3.02,.27-6.36,.43-12.73,.47-19.1,.04-8.28-6.8-16.22-15.13-16.95-1-1.56-3.32-4.09-7.24-2.38-2.66,1.15-1.97,2.51-.58,3.6-6.38,2.48-11.02,8.36-11.06,15.74-.05,10.64-.48,21.25-1.16,31.84-6.55,2.24-13.03,4.79-19.37,7.84-5.84,2.81-8.6,9.56-8.19,15.81-7.62,3.15-15.16,6.5-22.6,10.03-8.05,3.83-10.78,16-6.1,23.26,5.34,8.28,14.64,10.19,23.26,6.1,9.43-4.48,18.52-8.38,28.07-11.98-1.44,11.93-3,23.84-4.53,35.76-3.94,1.66-7.97,3.32-12.83,5.25-4.79,1.91-9.64,3.73-14.62,5.1-2.32,.64-4.67,1.21-7.05,1.6-.02,0-.04,0-.06,0-1.77,.16-3.52,.21-5.29,.22-8.89,.06-17.41,7.78-17,17,.41,9.16,7.47,17.06,17,17,12.35-.08,23.88-3.48,35.16-7.82-.52,4.71-1.03,9.43-1.47,14.15-.47,5.03-.05,9.64,1.47,13.93-4.96,1.49-9.97,2.85-15.02,4.03-10.55,2.46-16.38,3.38-26.33,4.07-8.85,.61-17.43,7.38-17,17,.39,8.69,7.5,17.65,17,17,23.08-1.59,45.08-7.22,66.57-14.85,1.36,1.07,2.72,2.12,4.08,3.17-1.02,.3-2.03,.62-3.06,.91-4.1,1.17-8.23,2.22-12.4,3.12-2.08,.45-4.17,.86-6.27,1.22-1,.17-2,.33-3.01,.48-.3,.03-.8,.09-1.53,.18-8.81,.99-17.44,7.11-17,17,.15,3.44,1.46,7.11,3.6,10.16l-2.06-.7s-.85,3.58,1.92,5.31c1.2,.75,2.09-.5,2.64-1.71,2.91,2.74,6.67,4.41,10.89,3.94,21.17-2.39,41.39-8.69,61.4-15.76,3.93,2.5,7.86,4.99,11.79,7.49-9.1,2.11-18.22,4.17-27.33,6.23-8.68,1.96-14.61,12.46-11.87,20.91,.92,2.85,2.41,5.29,4.29,7.22l-3.13-1.06s-.85,3.58,1.92,5.31c1.53,.96,2.56-1.33,3.02-2.67,4.01,3.09,9.29,4.32,14.82,3.07,18.47-4.17,36.95-8.37,55.33-12.92,6.89,5.89,13.42,12.1,19.36,19.03,3.98,4.64,11.03,5.93,16.97,4.22,.58,1.21,1.41,2.05,2.64,1.7,3.4-.97,3.69-4.88,3.69-4.88l-.25-.08c.35-.31,.69-.62,1-.96,6.62-7.22,6.19-16.81,0-24.04-1.54-1.8-3.13-3.55-4.74-5.27,.67-.19,1.34-.37,2-.57,8.96-2.6,17.88-5.31,26.8-8.05,7.13,6.29,14.21,12.65,21.1,19.21,4.3,4.09,10.73,5.77,16.42,4.4,.58,1.34,1.45,2.3,2.74,1.91,4-1.21,4.78-4.49,4.78-4.49l-1.39-.43c.52-.43,1.02-.88,1.49-1.39,6.1-6.65,6.88-17.49,0-24.04-2.36-2.24-4.74-4.46-7.13-6.66,8.67-2.52,17.37-4.94,26.12-7.17,5.73,7.04,11.46,14.09,17.15,21.16,5.6,6.96,18.29,6.27,24.04,0,6.78-7.39,5.98-16.62,0-24.04ZM127.36,168.77c.5-4.12,.98-8.25,1.44-12.37,12.8-3.65,25.69-6.96,38.49-10.59,1.7-.48,3.4-.98,5.1-1.48-.09,7.86-.18,15.72-.31,23.58-15.8,6.57-31.49,13.41-47.17,20.24,.83-6.46,1.66-12.92,2.44-19.38Zm-10.42,85.49c.38-3.89,.79-7.79,1.21-11.67,.57-5.17,1.18-10.33,1.8-15.49,9.72-4.18,19.43-8.4,29.13-12.63,7.47-3.25,14.89-6.47,22.32-9.64-.17,7.47-.35,14.94-.55,22.41-1.12,1.28-2.07,2.79-2.81,4.55-.67,1.58-1.07,3.22-1.24,4.87-5.83,2.51-11.65,5.07-17.44,7.64-11.74,5.21-21.84,9.79-32.45,14.13,.04-1.62-.05-3.44,.02-4.16Zm35.86,32.71c-2.18-1.45-4.34-2.91-6.5-4.39,9.94-4.34,19.5-8.67,29.05-12.83,1.9,2.69,4.25,5.04,6.9,7.09-9.88,3.23-19.68,6.64-29.46,10.13Zm121.93-156.05c1.24,1.37,2.42,2.69,3.57,4,0,1.61,0,3.21-.01,4.82-2.4-.76-4.9-1.25-7.42-1.55,.22-3.61,.39-7.22,.49-10.85,.04,.03,.09,.06,.13,.08,.19,.23,.47,.55,.89,1,.78,.84,1.58,1.65,2.35,2.5Zm-7.76,62.28c-.28-.32-.58-.61-.88-.91,.09-1.96,.22-3.92,.36-5.87,3.88,5.44,7.82,10.83,11.82,16.18,0,1.32,0,2.63,0,3.95-3.77-4.45-7.52-8.91-11.31-13.35Zm-60.45-60.55c10.71-4.32,21.1-9.3,31.02-15.16-.03,3.26-.08,6.51-.16,9.77-.15,5.35-.49,10.71-.93,16.08-10.27,3.19-20.36,7.27-30.15,10.96,.09-7.22,.17-14.43,.23-21.65Zm-.82,58.11c8.9-3.47,17.93-6.82,27.17-10.02-.84,11.02-1.19,22.02-.23,32.97-3.78,.82-7.57,1.61-11.37,2.33-5.98,1.13-11.16,2.02-16.19,2.76,.23-9.35,.44-18.7,.62-28.05Zm23.43,123.92c-7.97,2.32-15.98,4.51-24.01,6.62-5.23-3.78-10.58-7.42-15.99-10.97,1.21-.4,2.43-.8,3.64-1.2,9.43-3.05,18.89-6.04,28.37-8.96,2.09,1.99,4.19,3.97,6.31,5.93,2.49,2.31,4.99,4.59,7.51,6.87-1.94,.57-3.88,1.14-5.82,1.71Zm1.31-52.86c-3.15-3.12-6.27-6.27-9.39-9.43,.33-.1,.64-.2,.97-.3,13.71-4.14,27.67-7.34,41.66-10.34,3.04,3.6,6.07,7.2,9.1,10.81-2.22,.29-4.65,.59-7.85,1.03-8.83,1.23-17.45,3.3-26.01,5.75-2.83,.81-5.65,1.64-8.48,2.48Zm42.61,39.57c-4.62-4.05-9.23-8.12-13.8-12.23,4.26-1,8.54-1.87,12.88-2.53-1.46,.18-1.12,.13,1-.14,1.23-.16,2.46-.32,3.69-.48,2.73-.36,5.47-.71,8.19-1.13,4.2-.65,8.31-1.56,12.34-2.86,2.71,3.27,5.4,6.56,8.1,9.84-10.84,3.01-21.62,6.24-32.39,9.52Z"/>
  <path class="cls-4" d="M378.85,338.98s1.43,5.72-2.9,6.95c-4.32,1.25-3.44-6.95-3.44-6.95h6.34Z"/>
  <path class="cls-4" d="M24.13,306.39s-3.81-1.68-3.13-7.52c.68-5.86,8.97,.71,8.97,.71l-5.84,6.81Z"/>
  <path class="cls-4" d="M28.39,229.94s-.73,4.24,1.91,5.11c2.11,.69,6.24-.34,6.24-.34l-8.14-4.77Z"/>
  <path class="cls-4" d="M35.91,159.86s-.73,4.24,1.91,5.11c2.11,.69,6.24-.34,6.24-.34l-8.15-4.77Z"/>
  <rect class="cls-4" x="291.53" y="191.15" width="26.85" height="148.49" transform="translate(-96.23 315.2) rotate(-48.11)"/>
  <polygon class="cls-4" points="70.13 268.88 226.09 216.78 234.61 242.25 78.64 294.35 70.13 268.88"/>
  <rect class="cls-4" x="248.15" y="37.32" width="26.85" height="164.44"/>
  <polygon class="cls-4" points="82.17 120.82 222.54 61.69 220.4 183.02 72.36 236.51 82.17 120.82"/>
  <path class="cls-4" d="M187.36,248.44l68.39-23c3.34-1.12,6.04-4.53,6.04-7.6v-63.84c0-3.08-2.62-4.61-5.85-3.4l-66.28,24.56c-3.23,1.2-5.93,4.6-6.04,7.6l-2.11,62.29c-.1,3,2.52,4.52,5.86,3.4"/>
  <path class="cls-5" d="M191.51,241.28l60.3-20.43c1.99-.69,3.61-2.72,3.62-4.56l.15-56.28c0-1.84-1.56-2.75-3.51-2.04l-58.72,21.59c-1.95,.72-3.57,2.76-3.63,4.56l-1.72,55.13c-.06,1.8,1.51,2.72,3.51,2.04"/>
  <path class="cls-4" d="M106.89,275.51l68.39-23c3.34-1.12,6.12-4.47,6.22-7.47l2.12-62.28c.1-3.01-2.44-4.47-5.67-3.27l-66.28,24.56c-3.23,1.2-6.02,4.54-6.22,7.47l-4.23,60.73c-.21,2.92,2.33,4.39,5.67,3.27"/>
  <path class="cls-2" d="M111.24,268.49l60.3-20.43c1.99-.69,3.67-2.68,3.73-4.49l2.02-54.9c.07-1.79-1.46-2.67-3.4-1.96l-58.72,21.59c-1.95,.72-3.62,2.73-3.73,4.48l-3.59,53.75c-.12,1.75,1.4,2.63,3.4,1.96"/>
  <path class="cls-4" d="M26.42,302.57l68.4-23c3.34-1.12,6.19-4.4,6.4-7.33l4.23-60.73c.21-2.92-2.25-4.32-5.48-3.13l-66.28,24.56c-3.23,1.19-6.1,4.48-6.4,7.33l-6.35,59.17c-.31,2.85,2.15,4.25,5.48,3.13"/>
  <path class="cls-5" d="M30.97,295.69l60.3-20.43c1.99-.68,3.71-2.64,3.84-4.39l3.88-53.53c.13-1.75-1.35-2.59-3.29-1.88l-58.73,21.6c-1.94,.71-3.66,2.68-3.84,4.39l-5.45,52.38c-.18,1.71,1.29,2.55,3.29,1.87"/>
  <path class="cls-4" d="M189.66,175.15l66.28-24.56c3.23-1.2,5.85-4.67,5.85-7.74v-63.84c0-3.08-2.54-4.53-5.67-3.26l-64.17,26.11c-3.13,1.27-5.74,4.73-5.85,7.74l-2.11,62.29c-.11,3,2.44,4.46,5.67,3.26"/>
  <path class="cls-5" d="M193.68,167.9l58.43-21.81c1.93-.72,3.5-2.8,3.51-4.64l.15-56.27c0-1.84-1.52-2.72-3.4-1.96l-56.85,22.96c-1.88,.76-3.46,2.84-3.51,4.64l-1.73,55.13c-.05,1.8,1.47,2.68,3.4,1.96"/>
  <path class="cls-4" d="M111.67,204.05l66.28-24.56c3.23-1.2,5.93-4.6,6.03-7.6l2.12-62.29c.1-3.01-2.35-4.4-5.48-3.13l-64.17,26.11c-3.13,1.27-5.83,4.68-6.04,7.6l-4.23,60.73c-.2,2.92,2.25,4.33,5.48,3.13"/>
  <path class="cls-2" d="M115.9,196.93l58.43-21.81c1.93-.72,3.55-2.76,3.62-4.56l2.02-54.89c.07-1.8-1.4-2.64-3.29-1.88l-56.86,22.96c-1.87,.76-3.5,2.81-3.62,4.57l-3.58,53.75c-.12,1.76,1.35,2.59,3.29,1.87"/>
  <path class="cls-4" d="M33.69,232.94l66.28-24.56c3.23-1.2,6.01-4.54,6.22-7.47l4.23-60.73c.21-2.92-2.16-4.27-5.29-3l-64.17,26.12c-3.13,1.27-5.91,4.62-6.22,7.47l-6.34,59.17c-.31,2.85,2.06,4.19,5.29,2.99"/>
  <path class="cls-5" d="M38.11,225.97l58.43-21.81c1.93-.72,3.6-2.73,3.73-4.48l3.88-53.52c.12-1.76-1.3-2.56-3.18-1.8l-56.85,22.97c-1.88,.76-3.55,2.77-3.73,4.48l-5.46,52.37c-.17,1.72,1.25,2.52,3.18,1.8"/>
  <path class="cls-4" d="M191.96,101.86l64.17-26.11c3.13-1.27,5.67-4.8,5.67-7.87V4.03c0-3.07-2.45-4.48-5.48-3.13l-62.06,27.67c-3.02,1.35-5.56,4.87-5.66,7.88l-2.12,62.28c-.1,3,2.35,4.4,5.48,3.13"/>
  <path class="cls-5" d="M195.86,94.52l56.56-23.19c1.87-.77,3.39-2.88,3.39-4.72l.15-56.27c0-1.84-1.46-2.68-3.29-1.87l-54.99,24.33c-1.83,.81-3.35,2.92-3.4,4.72l-1.72,55.13c-.06,1.8,1.41,2.64,3.29,1.87"/>
  <path class="cls-4" d="M116.46,132.58l64.17-26.11c3.13-1.27,5.75-4.74,5.85-7.74l2.12-62.29c.1-3-2.27-4.34-5.29-2.99l-62.06,27.66c-3.02,1.35-5.64,4.82-5.85,7.74l-4.23,60.73c-.21,2.92,2.16,4.26,5.29,2.99"/>
  <path class="cls-5" d="M120.56,125.38l56.56-23.19c1.87-.77,3.44-2.84,3.51-4.64l2.02-54.9c.07-1.79-1.35-2.6-3.17-1.79l-54.99,24.33c-1.83,.81-3.39,2.89-3.51,4.65l-3.59,53.75c-.12,1.76,1.31,2.56,3.18,1.79"/>
  <path class="cls-4" d="M40.95,163.3l64.17-26.11c3.13-1.27,5.83-4.68,6.04-7.61l4.23-60.73c.21-2.92-2.08-4.2-5.11-2.86l-62.06,27.67c-3.03,1.35-5.73,4.75-6.04,7.6l-6.34,59.17c-.31,2.85,1.98,4.13,5.11,2.86"/>
  <path class="cls-5" d="M45.25,156.25l56.56-23.19c1.87-.77,3.49-2.81,3.62-4.56l3.88-53.52c.13-1.75-1.24-2.53-3.06-1.72l-54.99,24.34c-1.82,.8-3.44,2.85-3.62,4.56l-5.45,52.38c-.18,1.71,1.2,2.48,3.06,1.71"/>
  <polygon class="cls-4" points="97.44 308.81 245.07 261.28 312.9 325.71 176.58 364.66 97.44 308.81"/>
  <path class="cls-4" d="M315.64,362.16l59.3-15.86c2.87-.77,3.88-2.75,2.26-4.44l-33.56-34.67c-1.63-1.68-5.4-2.33-8.42-1.45l-62.42,18.22c-3.02,.88-4.03,2.87-2.25,4.44l36.67,32.31c1.78,1.57,5.55,2.21,8.42,1.45"/>
  <path class="cls-5" d="M315.7,358.19l52.61-14.17c1.73-.46,2.34-1.65,1.35-2.66l-29.87-30.47c-.98-1.01-3.25-1.39-5.06-.87l-54.92,15.93c-1.81,.52-2.42,1.71-1.35,2.66l32.18,28.71c1.06,.95,3.32,1.34,5.06,.87"/>
  <path class="cls-4" d="M245.93,380.79l59.3-15.85c2.87-.78,3.77-2.67,1.99-4.23l-36.68-32.32c-1.78-1.56-5.67-2.11-8.7-1.23l-62.42,18.21c-3.02,.88-3.91,2.78-1.98,4.23l39.8,29.95c1.93,1.45,5.82,2.01,8.7,1.24"/>
  <path class="cls-3" d="M245.71,377.05l52.61-14.17c1.73-.47,2.26-1.6,1.19-2.54l-32.62-28.39c-1.07-.93-3.41-1.26-5.22-.74l-54.93,15.92c-1.81,.53-2.34,1.66-1.19,2.54l34.94,26.63c1.15,.88,3.49,1.21,5.22,.74"/>
  <path class="cls-4" d="M176.22,399.43l59.3-15.85c2.87-.78,3.64-2.57,1.72-4.02l-39.8-29.95c-1.93-1.45-5.95-1.92-8.97-1.03l-62.42,18.22c-3.03,.88-3.79,2.68-1.72,4.01l42.92,27.59c2.08,1.34,6.1,1.8,8.97,1.03"/>
  <path class="cls-5" d="M175.71,395.91l52.61-14.17c1.73-.47,2.19-1.54,1.02-2.41l-35.38-26.3c-1.16-.86-3.58-1.14-5.38-.61l-54.93,15.92c-1.81,.53-2.26,1.6-1.02,2.41l37.69,24.54c1.25,.81,3.65,1.09,5.39,.62"/>
  <path class="cls-4" d="M272.8,323.96l62.42-18.22c3.02-.88,4.15-2.96,2.53-4.64l-33.56-34.67c-1.63-1.68-5.52-2.24-8.69-1.24l-65.54,20.58c-3.17,1-4.31,3.07-2.53,4.64l36.67,32.31c1.78,1.57,5.67,2.12,8.7,1.24"/>
  <path class="cls-3" d="M273.04,319.86l55.37-16.26c1.82-.54,2.49-1.78,1.52-2.78l-29.87-30.47c-.98-1.01-3.32-1.34-5.22-.74l-57.68,18.02c-1.9,.59-2.59,1.83-1.52,2.78l32.18,28.72c1.06,.94,3.39,1.28,5.22,.74"/>
  <path class="cls-4" d="M199.42,345.38l62.42-18.22c3.02-.88,4.03-2.87,2.25-4.44l-36.67-32.31c-1.78-1.57-5.8-2.03-8.97-1.03l-65.54,20.58c-3.17,1-4.19,2.98-2.25,4.44l39.8,29.95c1.93,1.45,5.95,1.92,8.97,1.03"/>
  <path class="cls-3" d="M199.38,341.49l55.36-16.26c1.83-.54,2.44-1.73,1.36-2.66l-32.63-28.38c-1.07-.93-3.49-1.21-5.38-.62l-57.69,18.01c-1.9,.59-2.5,1.79-1.35,2.66l34.94,26.63c1.16,.88,3.56,1.16,5.39,.62"/>
  <path class="cls-4" d="M126.05,366.8l62.42-18.22c3.02-.88,3.92-2.78,1.98-4.22l-39.8-29.96c-1.93-1.45-6.06-1.82-9.24-.82l-65.53,20.58c-3.18,1-4.06,2.89-1.98,4.22l42.91,27.6c2.08,1.33,6.22,1.7,9.24,.82"/>
  <path class="cls-3" d="M125.72,363.13l55.36-16.26c1.83-.53,2.36-1.67,1.2-2.54l-35.38-26.29c-1.16-.87-3.65-1.09-5.55-.5l-57.68,18.01c-1.9,.59-2.43,1.73-1.19,2.54l37.69,24.55c1.25,.8,3.73,1.02,5.55,.49"/>
  <path class="cls-4" d="M229.95,285.77l65.53-20.58c3.18-1,4.44-3.17,2.81-4.85l-33.56-34.68c-1.63-1.68-5.64-2.14-8.97-1.03l-68.66,22.95c-3.33,1.11-4.58,3.29-2.81,4.85l36.68,32.31c1.78,1.57,5.79,2.03,8.97,1.03"/>
  <path class="cls-5" d="M230.38,281.52l58.12-18.35c1.92-.6,2.67-1.91,1.68-2.91l-29.87-30.47c-.98-1.01-3.39-1.28-5.39-.62l-60.43,20.11c-1.99,.65-2.74,1.96-1.68,2.91l32.19,28.71c1.06,.95,3.47,1.22,5.38,.62"/>
  <path class="cls-4" d="M152.92,309.96l65.53-20.58c3.18-1,4.31-3.08,2.54-4.64l-36.68-32.31c-1.78-1.57-5.91-1.94-9.24-.83l-68.66,22.95c-3.32,1.12-4.46,3.19-2.53,4.64l39.8,29.96c1.92,1.45,6.06,1.82,9.24,.82"/>
  <path class="cls-3" d="M153.06,305.94l58.12-18.35c1.92-.6,2.59-1.85,1.52-2.78l-32.62-28.38c-1.08-.93-3.56-1.16-5.55-.5l-60.43,20.1c-1.99,.67-2.68,1.91-1.53,2.78l34.94,26.63c1.16,.88,3.63,1.1,5.55,.5"/>
  <path class="cls-4" d="M75.88,334.16l65.53-20.58c3.18-1,4.19-2.98,2.26-4.44l-39.8-29.95c-1.93-1.45-6.19-1.73-9.52-.61l-68.65,22.95c-3.33,1.11-4.34,3.1-2.26,4.43l42.92,27.6c2.08,1.33,6.34,1.61,9.52,.61"/>
  <path class="cls-5" d="M75.73,330.36l58.12-18.35c1.92-.6,2.52-1.79,1.35-2.66l-35.38-26.29c-1.16-.87-3.72-1.03-5.71-.37l-60.44,20.1c-1.99,.67-2.59,1.86-1.35,2.66l37.7,24.54c1.24,.81,3.8,.97,5.71,.37"/>
  <polygon class="cls-4" points="280.65 72.66 343.49 159.53 354.14 272.98 283.67 192.89 280.65 72.66"/>
  <path class="cls-4" d="M343.28,307.73l33.4,34.81c1.61,1.68,2.67,.78,2.35-2.02l-6.64-57.89c-.31-2.81-1.81-6.52-3.33-8.3l-31.29-36.68c-1.52-1.78-2.57-.87-2.35,2.02l4.53,59.76c.22,2.9,1.71,6.62,3.33,8.3"/>
  <path class="cls-5" d="M344.78,304.21l29.36,30.89c.96,1.02,1.59,.47,1.4-1.21l-5.72-51.28c-.19-1.69-1.08-3.92-2-4.98l-27.79-32.28c-.92-1.07-1.54-.52-1.41,1.21l4.15,52.66c.14,1.73,1.03,3.96,2,4.98"/>
  <path class="cls-4" d="M304.03,266.81l33.39,34.81c1.62,1.68,2.76,.71,2.54-2.19l-4.53-59.76c-.21-2.89-1.63-6.68-3.14-8.47l-31.3-36.68c-1.52-1.78-2.65-.79-2.54,2.19l2.43,61.63c.12,2.98,1.53,6.77,3.15,8.46"/>
  <path class="cls-1" d="M305.72,263.11l29.36,30.89c.97,1.02,1.65,.42,1.52-1.31l-3.85-52.93c-.13-1.74-.97-4.01-1.89-5.08l-27.79-32.28c-.92-1.06-1.6-.47-1.52,1.31l2.3,54.32c.07,1.79,.92,4.06,1.88,5.08"/>
  <path class="cls-4" d="M264.76,225.88l33.4,34.81c1.61,1.68,2.83,.64,2.72-2.35l-2.44-61.63c-.12-2.98-1.45-6.85-2.96-8.62l-31.3-36.69c-1.52-1.78-2.73-.72-2.72,2.35l.33,63.5c.02,3.07,1.34,6.94,2.96,8.62"/>
  <path class="cls-5" d="M266.66,222l29.36,30.89c.96,1.02,1.69,.39,1.63-1.41l-2-54.58c-.07-1.79-.87-4.11-1.78-5.17l-27.79-32.28c-.92-1.07-1.65-.43-1.64,1.41l.44,55.96c.02,1.84,.81,4.16,1.78,5.18"/>
  <path class="cls-4" d="M337.77,237.65l31.3,36.68c1.51,1.78,2.49,.95,2.16-1.86l-6.63-57.89c-.32-2.81-1.73-6.6-3.15-8.47l-29.2-38.55c-1.41-1.87-2.38-1.03-2.16,1.86l4.53,59.77c.22,2.89,1.63,6.68,3.15,8.46"/>
  <path class="cls-5" d="M339.15,234.23l27.51,32.54c.9,1.07,1.49,.57,1.3-1.12l-5.72-51.28c-.19-1.69-1.03-3.96-1.88-5.08l-25.94-33.92c-.85-1.12-1.44-.62-1.3,1.12l4.15,52.66c.13,1.73,.98,4.01,1.88,5.08"/>
  <path class="cls-4" d="M300.98,194.53l31.3,36.69c1.52,1.78,2.57,.87,2.35-2.03l-4.53-59.76c-.21-2.9-1.54-6.76-2.96-8.62l-29.19-38.55c-1.42-1.87-2.47-.97-2.35,2.02l2.44,61.63c.12,2.98,1.44,6.85,2.96,8.62"/>
  <path class="cls-1" d="M302.56,190.94l27.5,32.54c.91,1.07,1.54,.53,1.41-1.21l-3.86-52.93c-.12-1.74-.93-4.06-1.78-5.17l-25.94-33.93c-.86-1.12-1.49-.57-1.41,1.21l2.3,54.32c.07,1.79,.87,4.11,1.78,5.18"/>
  <path class="cls-4" d="M264.2,151.41l31.3,36.68c1.51,1.78,2.65,.8,2.54-2.19l-2.44-61.63c-.12-2.99-1.36-6.92-2.78-8.8l-29.19-38.55c-1.41-1.87-2.55-.88-2.54,2.2l.33,63.49c.02,3.07,1.26,7.01,2.78,8.79"/>
  <path class="cls-5" d="M265.96,147.64l27.5,32.54c.91,1.07,1.59,.49,1.53-1.31l-2-54.57c-.07-1.79-.82-4.15-1.67-5.28l-25.94-33.92c-.86-1.12-1.54-.53-1.52,1.31l.43,55.96c.02,1.84,.76,4.2,1.67,5.28"/>
  <path class="cls-4" d="M332.26,167.57l29.2,38.55c1.41,1.87,2.3,1.11,1.97-1.69l-6.63-57.89c-.32-2.81-1.64-6.67-2.96-8.63l-27.09-40.42c-1.31-1.96-2.2-1.2-1.98,1.69l4.53,59.76c.21,2.9,1.54,6.76,2.96,8.63"/>
  <path class="cls-5" d="M333.51,164.25l25.64,34.19c.85,1.12,1.38,.67,1.19-1.02l-5.71-51.28c-.19-1.69-.99-4.01-1.78-5.18l-24.09-35.57c-.79-1.17-1.32-.71-1.19,1.02l4.15,52.66c.13,1.73,.93,4.06,1.78,5.18"/>
  <path class="cls-4" d="M297.94,122.25l29.19,38.55c1.42,1.87,2.39,1.04,2.16-1.86l-4.53-59.76c-.22-2.9-1.47-6.84-2.78-8.8l-27.09-40.42c-1.31-1.96-2.29-1.12-2.16,1.86l2.43,61.63c.12,2.98,1.35,6.92,2.78,8.79"/>
  <path class="cls-5" d="M299.39,118.76l25.65,34.19c.84,1.12,1.42,.63,1.3-1.12l-3.86-52.93c-.13-1.74-.88-4.11-1.67-5.28l-24.08-35.57c-.79-1.17-1.38-.67-1.31,1.12l2.3,54.31c.07,1.79,.83,4.15,1.67,5.28"/>
  <path class="cls-4" d="M263.63,76.94l29.19,38.55c1.42,1.87,2.47,.97,2.35-2.02l-2.44-61.63c-.12-2.99-1.27-7-2.59-8.95L263.06,2.46c-1.31-1.96-2.36-1.05-2.35,2.02l.32,63.5c.02,3.07,1.18,7.09,2.59,8.95"/>
  <path class="cls-5" d="M265.27,73.28l25.65,34.19c.84,1.12,1.47,.59,1.4-1.21l-2-54.58c-.07-1.79-.76-4.2-1.55-5.37l-24.08-35.57c-.79-1.17-1.43-.63-1.41,1.21l.44,55.96c.02,1.84,.71,4.25,1.55,5.38"/>
  <path class="cls-4" d="M264.46,4.55c-1.75-2.55-3.26-5.81-8.14-3.64-4.87,2.17,3.57,3.23,3.57,3.23,0,0,6.33,2.97,4.58,.41"/>
</svg>