<?xml version="1.0" encoding="UTF-8"?>
<svg id="Layer_1" data-name="Layer 1" xmlns="http://www.w3.org/2000/svg" viewBox="0 0 400 400">
  <defs>
    <style>
      .cls-1 {
        fill: #00ae4d;
      }

      .cls-2 {
        fill: #f48120;
      }

      .cls-3 {
        fill: #fff;
      }

      .cls-4 {
        fill: #231f20;
      }

      .cls-5 {
        fill: #404041;
      }
    </style>
  </defs>
  <path class="cls-4" d="M371.16,272.54c-.24-2.13-1.19-1.71-2.08-.79-.33-1.88-1.07-3.7-2.3-5.35-5.29-7.15-11.15-13.67-17.13-20.14,2.67-6.22,.95-13.02-3.55-18.54-1.55-1.9-3.12-3.79-4.68-5.69,3.69,.35,7.43-.32,10.28-2.16,5.34-3.45,7.88-8.3,8.08-13.6l1.31,2.6s2.76-.24,2.28-4.44c-.41-3.65-2.93,.18-3.59,1.26,.02-2.95-.66-6.03-1.98-9.07,1.28,2.96-.6-2.23-.62-2.31-.34-1.08-.64-2.18-.97-3.26-1.09-3.58-2.39-7.01-3.92-10.43-2.85-6.37-6.88-11.91-11.27-17.32-1.11-1.36-2.25-2.7-3.41-4.02-.32-3.42-.71-6.83-1.18-10.25-.96-6.88-2.43-13.59-4.03-20.34-.71-2.98-1.38-5.96-1.95-8.97-.12-.65-.22-1.1-.29-1.4,0-.3-.02-.72-.06-1.31-.1-1.83-.14-3.64-.1-5.46,.08-3.98-1.51-7.88-4.1-10.94,.72-.88,1.46-2.23,.67-3.42-1.33-1.97-3.43-1.01-3.43-1.01l.84,2.47c-3.02-2.65-6.9-4.28-10.98-4.1-6.84,.31-12.65,4.17-15.36,9.94-.18-13.83-.15-27.65,.08-41.48,.07-3.88-1.44-7.69-3.9-10.72l.95-2.6c-1.33-1.97-3.43-1.01-3.43-1.01l.54,1.59c-3.05-2.75-6.99-4.45-11.15-4.26-9.34,.42-16.84,7.47-17,17-.01,.66-.02,1.31-.03,1.97-4.99-3.64-11.44-4.94-17.93-3.15-6.35,1.76-12.7,5.53-18.68,8.28-6.52,3-13.03,6-19.55,9,.1-8.9,.21-17.81,.31-26.71,.1-8.63-7.43-16.87-16.19-16.99l.64-1.11s-4.4-2.57-7.41-1.45c-1.27,.47-.91,2.1-.08,3.85-6.34,2.49-10.88,8.36-10.97,15.71-.16,14.15-.33,28.3-.49,42.44-13.08,6.02-26.16,12.04-39.23,18.06l.46-3.6c1.17-9.21,3.74-19.25,.6-28.31-2.43-7.02-9.05-12.65-16.49-12.58-.8-1.43-3.18-4.71-7.5-2.84-3.44,1.49-1.29,3.33,.76,4.48-7.17,3.5-12.37,11.83-9.55,19.97,.03,.07,.16,.59,.28,1.01,0,.45,.02,1.01,.01,1.08-.24,2.12-.46,4.24-.73,6.35-.59,4.6-1.17,9.19-1.76,13.79-.73,5.76-1.47,11.51-2.2,17.27-16.24,7.48-32.49,14.95-48.73,22.43-8.1,3.73-10.74,16.06-6.1,23.26,5.39,8.36,14.59,10.09,23.26,6.1,8.84-4.07,17.69-8.14,26.53-12.21l-1.63,12.78c-7.89,4.53-15.25,9.81-22.38,15.79-4.75,3.98-9.32,8.16-14.03,12.18-1.28,1.1-2.57,2.18-3.87,3.25-.02,.01-2.13,1.64-2.49,1.95-2.5,1.84-5.07,3.57-7.72,5.19-7.58,4.64-11.14,15.44-6.1,23.26,4.91,7.61,15.14,11.06,23.26,6.1,9.88-6.04,18.6-13.65,27.3-21.25-.6,5.39-1.1,10.78-1.42,16.18-.95,16.37,.11,34.34,11.39,47.27,4.9,5.62,10.67,8.66,16.81,9.95-9.97,2.03-19.97,3.86-30.02,5.48-8.81,1.42-14.49,12.83-11.87,20.91,.65,2.01,1.54,3.74,2.62,5.25l-.94-.32s-.85,3.58,1.91,5.32c1.11,.69,1.95-.32,2.51-1.44,3.98,2.96,9.2,3.97,14.81,3.06,15.78-2.55,31.46-5.63,47.04-9.16,2.7,2.58,5.51,5.09,8.4,7.51-2.99,.27-6.2,.47-10,.64-8.87,.4-17.42,7.53-17,17,.16,3.5,1.37,6.94,3.34,9.81l-.43-.15s-.85,3.58,1.91,5.32c1.01,.63,1.79-.14,2.35-1.13,2.73,2.08,6.08,3.31,9.82,3.14,17.83-.81,35.23-3.87,52.45-7.88,12.1,5.94,24.58,11.18,36.98,16.36,2.52,1.05,5.28,1.11,7.95,.46,.57,1.1,1.38,1.83,2.53,1.49,2.62-.75,3.39-3.24,3.61-4.35,3.37-2.39,5.99-5.83,6.82-9.47,1.78-7.81-1.14-13.97-6.74-18.05,8.77-2.37,17.72-4.38,26.69-6.38,1.33,.84,2.67,1.67,3.99,2.53,2.9,1.88,5.77,3.79,8.61,5.75,1.66,1.14,3.3,2.31,4.93,3.49,.47,.34,4.76,3.55,2.76,2,4.44,3.44,10.19,5.46,15.52,4.62,.57,1.12,1.39,1.86,2.55,1.51,4-1.21,4.78-4.5,4.78-4.5l-.42-.13c.55-.46,1.1-.95,1.61-1.51,5.58-6.08,7.51-18.23,0-24.04-.4-.31-.81-.61-1.21-.92,8.78-2.97,17.33-6.52,25.49-11.05,5.8-3.22,10.46-7.44,13.07-13.63,2.12-5.03,2.37-10.47,2.25-15.88-.01-.51-.04-1.03-.06-1.54,3.31,.45,6.75-.16,9.98-2.24,4.13-2.66,7.46-7.57,8.36-12.71,.58-.13,2.53-.82,2.12-4.41Zm-73.86-106.35c2.46,2.53,4.93,5.06,7.37,7.61,.08,1.92,.15,3.84,.2,5.77-2.48-2.76-4.97-5.52-7.47-8.26l-.2-4.97s.06-.09,.09-.14Zm-90.22-49.64l2.67-1.23c7.86-3.62,15.73-7.24,23.59-10.86,3.89-1.79,7.79-3.58,11.68-5.38,.99,1.99,2,3.97,3.08,5.91,3.07,5.54,6.51,10.87,10.18,16.03,.99,1.39,2,2.77,3.01,4.14l.07,14.4c-.99-.59-2.01-1.15-3.08-1.64-10.96-5.06-21.55-3.11-32.49,.94-6.35,2.35-12.7,4.7-19.05,7.05,.11-9.79,.23-19.58,.34-29.36Zm-78.02,35.91c11.17-5.14,22.34-10.28,33.52-15.43,3.44-1.58,6.88-3.17,10.32-4.75-.08,6.5-.15,13.01-.23,19.51,0,.81-.02,1.62-.02,2.42-15.39,3-30.55,7.06-45.36,12.18l1.78-13.94Zm27.09,100.51c-.85,.6-1.7,1.19-2.57,1.75-2.97,1.93-6.07,3.66-9.23,5.26-2.73,1.39-5.51,2.67-8.31,3.9-.38,.17-5.04,2.11-1.53,.67-1.53,.63-3.06,1.27-4.61,1.85-.25,.09-.5,.18-.75,.27-1.14-1.66-2.27-3.32-3.41-4.99-2.01-2.96-4.88-5.36-8.11-6.84-.08-4.73,.13-9.46,.5-14.17,.96-12.15,2.62-24.27,4.26-36.36,1.42-.57,2.85-1.13,4.28-1.67,3.19-1.21,6.41-2.38,9.63-3.49,6.49-2.24,13.06-4.29,19.68-6.12,3.9-1.08,7.83-2.08,11.77-3.02,1.38,.87,2.86,1.56,4.41,1.99-.07,2.9-.14,5.79-.24,8.69-.19,5.29-.46,10.59-.88,15.87-2.95-.13-5.94,.56-8.7,2.34-7.27,4.69-11.49,15.42-6.1,23.26,1.53,2.22,3.06,4.44,4.6,6.65-.77,.78-1.57,1.55-2.38,2.29-.26,.23-2.48,1.96-2.29,1.88Zm24.97,23.41c1.79,2.24,3.62,4.44,5.47,6.62-9.5,2.8-19.04,5.47-28.61,7.98,8.27-3.96,16.23-8.56,23.14-14.6Zm12.35,52.74c-4.85-2.72-9.61-5.57-14.26-8.63,6.72-1.86,13.41-3.79,20.09-5.78,4.98-1.49,9.94-3.02,14.9-4.57,.39,.31,.77,.64,1.17,.95,3.89,3.03,7.87,5.93,11.9,8.74-11.27,3.1-22.49,6.33-33.8,9.29Zm45.71-62.94c-5.66,1.94-11.33,3.83-17.01,5.7-4.11-4.14-8.02-8.46-11.76-12.93-4.38-5.24-6.43-7.91-10.17-13.07,2-6.79,3.2-13.92,4.02-21.26,1.57-14.08,1.88-28.26,2.05-42.42,8.59-3.18,17.17-6.35,25.76-9.53,1.11-.41,7.58-3.26,10.8-4.12-.4,.31-.36,.59,.9,.04,.2,.14,.38,.25,.52,.34,.86,.79,1.69,1.62,2.48,2.49,.5,.56,.98,1.15,1.46,1.73,.03,.04,.05,.06,.08,.11,2.08,3.19,4.41,6.26,6.66,9.33,6.93,9.43,14.27,18.43,22,27.02,1.51,2.2,3.03,4.38,4.57,6.56-.51,3.44-1.02,6.88-1.57,10.31-1.41,8.95-2.93,17.89-4.56,26.8-3.99,1.47-7.98,2.92-11.98,4.36-8.06,2.9-16.14,5.75-24.25,8.53Zm75.22,29.45c-1.89,.95-3.81,1.86-5.76,2.69-.1,0-4.11,1.56-4.57,1.72-10.3,3.73-20.91,6.38-31.58,8.81-6.22-3.91-12.44-7.81-18.57-11.86,7.99-2.78,15.97-5.61,23.92-8.5,11.33-4.12,24.8-7.11,29-19.98,1.58-4.83,2.55-10,3.34-15.21,1.55,1.81,3.12,3.62,4.71,5.4-1.86,3.58-2.47,7.82-1.36,12.16,.6,2.36,1.17,4.73,1.64,7.13,.24,1.2,.45,2.4,.65,3.6,.08,.56,.15,.98,.2,1.29,.44,3.79,.36,7.6,.55,11.39-.89,.58-1.7,1.13-2.16,1.36Z"/>
  <path class="cls-4" d="M378.79,339.12s1.43,5.73-2.89,6.97c-4.32,1.24-3.44-6.97-3.44-6.97h6.33Z"/>
  <path class="cls-4" d="M24.2,306.5s-3.8-1.67-3.13-7.53c.68-5.86,8.97,.71,8.97,.71l-5.84,6.81Z"/>
  <path class="cls-4" d="M28.46,229.97s-.73,4.24,1.91,5.12c2.1,.69,6.24-.34,6.24-.34l-8.15-4.78Z"/>
  <path class="cls-4" d="M35.97,159.82s-.73,4.25,1.91,5.12c2.11,.69,6.24-.34,6.24-.34l-8.15-4.78Z"/>
  <polygon class="cls-4" points="258.63 205.83 369.12 305.07 351.2 325.08 240.7 225.83 258.63 205.83"/>
  <rect class="cls-4" x="70.19" y="242.18" width="164.4" height="26.88" transform="translate(-73.23 61.56) rotate(-18.5)"/>
  <rect class="cls-4" x="248.13" y="37.15" width="26.84" height="164.6"/>
  <polygon class="cls-4" points="82.22 120.74 222.53 61.54 220.39 183.01 72.41 236.55 82.22 120.74"/>
  <path class="cls-4" d="M187.37,248.49l68.36-23.03c3.34-1.12,6.04-4.53,6.04-7.61v-63.9c0-3.08-2.61-4.6-5.85-3.41l-66.26,24.58c-3.23,1.2-5.93,4.61-6.03,7.61l-2.11,62.35c-.11,3,2.52,4.53,5.85,3.41"/>
  <path class="cls-2" d="M191.52,241.31l60.28-20.46c1.99-.67,3.61-2.72,3.61-4.56l.15-56.33c0-1.85-1.57-2.76-3.51-2.04l-58.7,21.61c-1.94,.71-3.56,2.77-3.62,4.57l-1.71,55.17c-.06,1.81,1.52,2.72,3.51,2.04"/>
  <path class="cls-4" d="M106.93,275.58l68.36-23.03c3.34-1.12,6.12-4.46,6.22-7.47l2.11-62.35c.11-3-2.43-4.46-5.66-3.27l-66.26,24.59c-3.23,1.2-6.02,4.54-6.21,7.47l-4.23,60.78c-.21,2.93,2.33,4.4,5.66,3.27"/>
  <path class="cls-2" d="M111.27,268.55l60.28-20.46c1.99-.68,3.66-2.68,3.73-4.48l2.02-54.96c.07-1.8-1.46-2.68-3.4-1.96l-58.7,21.62c-1.94,.71-3.61,2.72-3.73,4.48l-3.59,53.8c-.11,1.76,1.41,2.63,3.4,1.96"/>
  <path class="cls-4" d="M26.49,302.67l68.37-23.03c3.34-1.12,6.2-4.41,6.4-7.34l4.23-60.78c.2-2.93-2.25-4.33-5.48-3.13l-66.26,24.59c-3.23,1.19-6.09,4.48-6.4,7.33l-6.34,59.23c-.3,2.86,2.15,4.26,5.48,3.13"/>
  <path class="cls-2" d="M31.03,295.79l60.27-20.46c2-.67,3.71-2.64,3.84-4.4l3.88-53.58c.12-1.76-1.34-2.59-3.29-1.88l-58.7,21.62c-1.94,.71-3.66,2.68-3.84,4.4l-5.45,52.42c-.18,1.72,1.29,2.56,3.29,1.88"/>
  <path class="cls-4" d="M189.66,175.13l66.26-24.58c3.23-1.2,5.85-4.67,5.85-7.75v-63.9c0-3.08-2.54-4.55-5.67-3.27l-64.14,26.13c-3.12,1.28-5.74,4.74-5.84,7.75l-2.11,62.35c-.11,3,2.43,4.46,5.66,3.27"/>
  <path class="cls-5" d="M193.69,167.86l58.41-21.83c1.93-.72,3.5-2.81,3.51-4.65l.15-56.33c0-1.85-1.52-2.72-3.39-1.96l-56.84,22.99c-1.88,.76-3.45,2.84-3.51,4.65l-1.72,55.17c-.05,1.81,1.47,2.68,3.4,1.96"/>
  <path class="cls-4" d="M111.71,204.05l66.26-24.58c3.23-1.21,5.93-4.61,6.03-7.61l2.11-62.35c.11-3-2.35-4.41-5.47-3.13l-64.15,26.14c-3.13,1.27-5.83,4.68-6.03,7.61l-4.23,60.78c-.2,2.93,2.25,4.33,5.48,3.13"/>
  <path class="cls-2" d="M115.93,196.93l58.41-21.83c1.93-.72,3.55-2.77,3.61-4.57l2.02-54.95c.07-1.8-1.4-2.64-3.29-1.89l-56.83,22.99c-1.88,.76-3.5,2.81-3.62,4.56l-3.58,53.8c-.12,1.76,1.35,2.6,3.29,1.88"/>
  <path class="cls-4" d="M33.75,232.97l66.26-24.58c3.23-1.21,6.02-4.55,6.22-7.48l4.22-60.79c.2-2.92-2.16-4.27-5.29-3l-64.14,26.14c-3.12,1.28-5.91,4.62-6.21,7.48l-6.34,59.23c-.3,2.85,2.07,4.19,5.29,3"/>
  <path class="cls-5" d="M38.17,225.99l58.41-21.83c1.93-.72,3.61-2.73,3.73-4.49l3.88-53.58c.12-1.75-1.29-2.55-3.18-1.8l-56.83,22.99c-1.88,.75-3.55,2.77-3.73,4.48l-5.45,52.42c-.18,1.72,1.24,2.52,3.17,1.8"/>
  <path class="cls-4" d="M191.96,101.76l64.14-26.14c3.13-1.27,5.66-4.8,5.66-7.88V3.84c0-3.08-2.45-4.47-5.47-3.13l-62.04,27.69c-3.02,1.35-5.56,4.88-5.65,7.89l-2.12,62.34c-.1,3,2.35,4.41,5.48,3.13"/>
  <path class="cls-5" d="M195.86,94.41l56.54-23.21c1.87-.76,3.39-2.88,3.4-4.73l.15-56.33c0-1.85-1.47-2.69-3.29-1.88l-54.97,24.36c-1.82,.8-3.34,2.92-3.39,4.73l-1.72,55.17c-.06,1.81,1.42,2.65,3.29,1.88"/>
  <path class="cls-4" d="M116.49,132.52l64.14-26.14c3.13-1.27,5.74-4.74,5.85-7.75l2.11-62.34c.1-3-2.27-4.34-5.29-3l-62.04,27.69c-3.02,1.35-5.64,4.82-5.84,7.75l-4.23,60.79c-.2,2.93,2.16,4.27,5.29,3"/>
  <path class="cls-5" d="M120.59,125.31l56.54-23.21c1.88-.77,3.44-2.85,3.51-4.64l2.02-54.96c.07-1.8-1.35-2.6-3.17-1.8l-54.97,24.36c-1.82,.81-3.39,2.9-3.51,4.65l-3.58,53.8c-.12,1.76,1.3,2.57,3.17,1.8"/>
  <path class="cls-4" d="M41.02,163.27l64.14-26.14c3.13-1.27,5.84-4.68,6.03-7.61l4.23-60.79c.2-2.92-2.08-4.2-5.11-2.86l-62.04,27.7c-3.02,1.35-5.72,4.75-6.03,7.61l-6.34,59.23c-.3,2.85,1.98,4.13,5.11,2.86"/>
  <path class="cls-5" d="M45.31,156.2l56.54-23.21c1.87-.77,3.49-2.81,3.62-4.56l3.88-53.58c.12-1.76-1.25-2.53-3.07-1.72l-54.97,24.36c-1.82,.81-3.44,2.86-3.62,4.57l-5.45,52.42c-.18,1.72,1.2,2.49,3.07,1.72"/>
  <polygon class="cls-4" points="97.48 308.91 245.05 261.35 312.86 325.83 176.6 364.82 97.48 308.91"/>
  <path class="cls-4" d="M315.59,362.31l59.28-15.87c2.88-.77,3.88-2.76,2.26-4.44l-33.55-34.71c-1.62-1.68-5.39-2.33-8.42-1.44l-62.39,18.23c-3.03,.89-4.04,2.87-2.26,4.44l36.67,32.35c1.77,1.57,5.54,2.22,8.42,1.44"/>
  <path class="cls-3" d="M315.66,358.34l52.59-14.19c1.73-.47,2.34-1.66,1.35-2.66l-29.86-30.5c-.98-1.01-3.25-1.4-5.06-.87l-54.9,15.95c-1.81,.53-2.41,1.72-1.35,2.67l32.17,28.74c1.07,.94,3.33,1.34,5.06,.87"/>
  <path class="cls-4" d="M245.91,380.97l59.28-15.87c2.88-.76,3.76-2.66,1.98-4.23l-36.66-32.35c-1.79-1.57-5.67-2.13-8.7-1.24l-62.4,18.23c-3.02,.89-3.91,2.78-1.98,4.23l39.78,29.98c1.93,1.45,5.82,2.01,8.7,1.24"/>
  <path class="cls-3" d="M245.69,377.22l52.59-14.19c1.73-.47,2.26-1.6,1.19-2.54l-32.61-28.41c-1.07-.94-3.41-1.27-5.21-.75l-54.91,15.95c-1.8,.53-2.34,1.67-1.19,2.54l34.92,26.65c1.16,.88,3.49,1.21,5.22,.75"/>
  <path class="cls-4" d="M176.23,399.63l59.28-15.87c2.88-.77,3.64-2.57,1.71-4.02l-39.78-29.99c-1.93-1.45-5.94-1.91-8.97-1.03l-62.4,18.23c-3.02,.89-3.79,2.68-1.71,4.02l42.9,27.61c2.08,1.35,6.09,1.81,8.97,1.03"/>
  <path class="cls-3" d="M175.72,396.1l52.59-14.19c1.73-.47,2.19-1.55,1.02-2.41l-35.36-26.32c-1.16-.87-3.57-1.15-5.38-.62l-54.9,15.95c-1.81,.53-2.27,1.61-1.02,2.42l37.68,24.56c1.24,.8,3.65,1.08,5.38,.62"/>
  <path class="cls-4" d="M272.77,324.08l62.39-18.23c3.02-.89,4.15-2.96,2.53-4.64l-33.54-34.72c-1.63-1.67-5.52-2.23-8.7-1.24l-65.5,20.61c-3.18,1-4.31,3.09-2.53,4.65l36.66,32.34c1.78,1.57,5.67,2.13,8.7,1.24"/>
  <path class="cls-3" d="M273.02,319.97l55.34-16.27c1.82-.54,2.5-1.79,1.52-2.79l-29.86-30.5c-.98-1.01-3.32-1.34-5.21-.75l-57.66,18.04c-1.89,.6-2.57,1.84-1.52,2.79l32.17,28.74c1.06,.95,3.39,1.28,5.21,.75"/>
  <path class="cls-4" d="M199.43,345.52l62.39-18.23c3.03-.89,4.04-2.87,2.26-4.44l-36.67-32.35c-1.78-1.57-5.79-2.03-8.97-1.03l-65.51,20.6c-3.17,1-4.19,2.99-2.25,4.44l39.78,29.98c1.93,1.45,5.94,1.92,8.97,1.03"/>
  <path class="cls-3" d="M199.38,341.63l55.34-16.27c1.82-.54,2.43-1.73,1.35-2.67l-32.61-28.41c-1.07-.94-3.48-1.21-5.38-.62l-57.65,18.03c-1.9,.6-2.5,1.79-1.35,2.67l34.93,26.65c1.15,.88,3.55,1.15,5.38,.62"/>
  <path class="cls-4" d="M126.08,366.96l62.39-18.23c3.03-.89,3.92-2.78,1.99-4.23l-39.78-29.98c-1.93-1.45-6.07-1.82-9.24-.82l-65.51,20.6c-3.17,1-4.06,2.9-1.98,4.23l42.89,27.61c2.08,1.34,6.22,1.71,9.24,.82"/>
  <path class="cls-3" d="M125.75,363.29l55.34-16.28c1.82-.53,2.35-1.67,1.19-2.54l-35.36-26.32c-1.16-.87-3.65-1.09-5.55-.5l-57.65,18.04c-1.9,.6-2.43,1.73-1.19,2.54l37.67,24.56c1.25,.8,3.72,1.03,5.55,.49"/>
  <path class="cls-4" d="M229.94,285.85l65.51-20.61c3.17-.99,4.43-3.17,2.8-4.85l-33.54-34.71c-1.63-1.68-5.64-2.15-8.97-1.03l-68.62,22.97c-3.34,1.12-4.59,3.29-2.81,4.86l36.67,32.34c1.78,1.57,5.79,2.04,8.97,1.03"/>
  <path class="cls-3" d="M230.37,281.6l58.1-18.37c1.91-.61,2.66-1.91,1.68-2.91l-29.86-30.5c-.98-1-3.39-1.28-5.38-.62l-60.42,20.13c-1.98,.66-2.74,1.97-1.68,2.91l32.17,28.75c1.06,.94,3.47,1.21,5.38,.62"/>
  <path class="cls-4" d="M152.94,310.07l65.51-20.61c3.17-.99,4.3-3.08,2.53-4.64l-36.67-32.35c-1.78-1.56-5.92-1.93-9.24-.82l-68.64,22.97c-3.32,1.12-4.46,3.2-2.53,4.65l39.78,29.98c1.93,1.45,6.07,1.82,9.24,.82"/>
  <path class="cls-3" d="M153.08,306.04l58.1-18.37c1.91-.61,2.59-1.85,1.52-2.79l-32.61-28.41c-1.07-.94-3.56-1.16-5.55-.49l-60.41,20.12c-1.98,.66-2.67,1.91-1.52,2.79l34.92,26.65c1.16,.88,3.64,1.1,5.55,.49"/>
  <path class="cls-4" d="M75.93,334.29l65.51-20.61c3.17-.99,4.18-2.98,2.25-4.44l-39.78-29.98c-1.93-1.45-6.19-1.73-9.51-.62l-68.63,22.97c-3.33,1.12-4.34,3.1-2.26,4.44l42.9,27.61c2.08,1.34,6.34,1.62,9.51,.62"/>
  <path class="cls-3" d="M75.77,330.48l58.1-18.37c1.91-.61,2.52-1.81,1.35-2.67l-35.36-26.32c-1.16-.87-3.71-1.03-5.7-.37l-60.42,20.12c-1.98,.66-2.59,1.85-1.35,2.67l37.68,24.56c1.24,.8,3.79,.97,5.7,.37"/>
  <polygon class="cls-4" points="280.62 72.53 343.44 159.49 354.09 273.05 283.64 192.88 280.62 72.53"/>
  <path class="cls-4" d="M343.23,307.84l33.39,34.85c1.61,1.68,2.66,.78,2.34-2.03l-6.63-57.95c-.32-2.81-1.81-6.52-3.33-8.3l-31.28-36.72c-1.52-1.77-2.57-.87-2.35,2.03l4.53,59.82c.22,2.91,1.71,6.62,3.33,8.31"/>
  <path class="cls-1" d="M344.73,304.31l29.35,30.92c.97,1.02,1.6,.48,1.41-1.21l-5.71-51.33c-.19-1.69-1.08-3.92-2-4.98l-27.78-32.31c-.92-1.07-1.55-.52-1.41,1.21l4.15,52.72c.14,1.73,1.03,3.96,2,4.98"/>
  <path class="cls-4" d="M303.99,266.87l33.39,34.85c1.61,1.68,2.75,.71,2.53-2.19l-4.54-59.82c-.21-2.9-1.62-6.69-3.14-8.47l-31.28-36.72c-1.52-1.78-2.65-.8-2.53,2.19l2.43,61.69c.11,2.99,1.52,6.78,3.14,8.47"/>
  <path class="cls-1" d="M305.68,263.17l29.35,30.92c.97,1.02,1.65,.43,1.52-1.31l-3.85-52.98c-.13-1.75-.98-4.02-1.88-5.09l-27.79-32.31c-.91-1.06-1.59-.47-1.52,1.31l2.29,54.38c.07,1.79,.92,4.06,1.88,5.08"/>
  <path class="cls-4" d="M264.74,225.91l33.39,34.85c1.61,1.68,2.84,.63,2.71-2.36l-2.43-61.69c-.12-3-1.44-6.86-2.96-8.64l-31.28-36.72c-1.52-1.78-2.74-.72-2.72,2.36l.33,63.56c.02,3.08,1.34,6.94,2.96,8.63"/>
  <path class="cls-1" d="M266.63,222.02l29.35,30.92c.97,1.02,1.7,.39,1.63-1.41l-2-54.63c-.07-1.81-.86-4.12-1.77-5.19l-27.79-32.3c-.92-1.07-1.65-.43-1.63,1.4l.44,56.03c.02,1.84,.8,4.16,1.77,5.18"/>
  <path class="cls-4" d="M337.72,237.69l31.28,36.72c1.52,1.77,2.49,.94,2.16-1.86l-6.63-57.95c-.32-2.81-1.73-6.6-3.15-8.47l-29.18-38.59c-1.41-1.87-2.38-1.04-2.16,1.85l4.53,59.82c.21,2.9,1.62,6.69,3.14,8.47"/>
  <path class="cls-5" d="M339.1,234.26l27.5,32.57c.9,1.08,1.48,.57,1.29-1.12l-5.71-51.33c-.19-1.69-1.03-3.96-1.88-5.08l-25.93-33.96c-.85-1.12-1.43-.62-1.29,1.12l4.15,52.72c.14,1.73,.98,4,1.88,5.08"/>
  <path class="cls-4" d="M300.95,194.52l31.28,36.72c1.52,1.78,2.57,.87,2.35-2.03l-4.53-59.82c-.22-2.9-1.54-6.76-2.96-8.63l-29.18-38.59c-1.42-1.87-2.47-.97-2.34,2.03l2.43,61.68c.11,3,1.44,6.86,2.96,8.64"/>
  <path class="cls-1" d="M302.52,190.92l27.49,32.57c.91,1.08,1.54,.53,1.41-1.21l-3.85-52.98c-.13-1.75-.93-4.06-1.78-5.18l-25.93-33.97c-.85-1.12-1.48-.57-1.41,1.22l2.29,54.37c.08,1.79,.88,4.1,1.78,5.18"/>
  <path class="cls-5" d="M265.94,147.59l27.49,32.57c.91,1.08,1.59,.48,1.52-1.31l-2-54.63c-.07-1.8-.81-4.16-1.66-5.28l-25.93-33.96c-.85-1.12-1.53-.53-1.52,1.31l.43,56.03c.02,1.84,.76,4.2,1.66,5.28"/>
  <path class="cls-4" d="M332.21,167.53l29.18,38.59c1.42,1.87,2.3,1.11,1.98-1.7l-6.63-57.95c-.32-2.81-1.65-6.68-2.96-8.64l-27.08-40.45c-1.32-1.97-2.2-1.21-1.98,1.7l4.53,59.82c.22,2.9,1.54,6.76,2.96,8.63"/>
  <path class="cls-5" d="M333.47,164.22l25.63,34.22c.84,1.12,1.38,.67,1.19-1.02l-5.71-51.32c-.19-1.7-.98-4.01-1.78-5.19l-24.07-35.61c-.79-1.17-1.33-.72-1.19,1.02l4.15,52.72c.14,1.73,.93,4.05,1.78,5.18"/>
  <path class="cls-4" d="M297.91,122.17l29.18,38.59c1.41,1.87,2.38,1.03,2.16-1.86l-4.53-59.82c-.22-2.9-1.47-6.84-2.78-8.8l-27.08-40.46c-1.31-1.96-2.29-1.13-2.16,1.86l2.43,61.69c.12,2.99,1.36,6.93,2.78,8.8"/>
  <path class="cls-5" d="M299.36,118.68l25.63,34.22c.84,1.12,1.43,.62,1.29-1.12l-3.85-52.98c-.13-1.74-.88-4.11-1.66-5.28l-24.08-35.62c-.79-1.17-1.37-.66-1.29,1.12l2.29,54.37c.07,1.79,.82,4.15,1.66,5.28"/>
  <path class="cls-4" d="M263.6,76.81l29.18,38.59c1.41,1.87,2.47,.96,2.34-2.03l-2.43-61.69c-.12-2.99-1.28-7-2.59-8.96L263.03,2.27c-1.31-1.96-2.36-1.05-2.34,2.03l.33,63.56c.02,3.08,1.17,7.09,2.59,8.96"/>
  <path class="cls-5" d="M265.25,73.15l25.63,34.22c.84,1.12,1.48,.58,1.41-1.21l-2-54.63c-.07-1.8-.76-4.21-1.56-5.38l-24.07-35.62c-.79-1.17-1.43-.62-1.41,1.21l.44,56.03c0,1.84,.7,4.25,1.55,5.38"/>
  <path class="cls-4" d="M264.43,4.36c-1.75-2.55-3.26-5.82-8.14-3.64-4.88,2.17,3.56,3.23,3.56,3.23,0,0,6.33,2.97,4.57,.42"/>
</svg>