<?xml version="1.0" encoding="UTF-8"?>
<svg id="Layer_1" data-name="Layer 1" xmlns="http://www.w3.org/2000/svg" viewBox="0 0 400 400">
  <defs>
    <style>
      .cls-1 {
        fill: #ffe012;
      }

      .cls-2 {
        fill: #fff;
      }

      .cls-3 {
        fill: #231f20;
      }

      .cls-4 {
        fill: #404041;
      }
    </style>
  </defs>
  <path class="cls-3" d="M369.31,123.05c-.61-5.23-3.44-10.2-8.19-12.72-1.33-.7-2.71-1.21-4.11-1.57,1.28-4.82,.21-10.18-2.57-14.31-1.36-2.38-3.35-4.41-5.98-5.8-12.76-6.72-25.78-13.14-39.01-19.12,1.68-1.45,3.36-2.89,5.04-4.34,6.77-5.81,6.41-18.15,0-24.04-1.61-1.47-3.34-2.58-5.13-3.37-.67-1.02-1.89-2.25-4.02-2.9-1.15-.35-1.95,.38-2.53,1.47-4.32-.03-8.65,1.61-12.36,4.8-5.37,4.6-10.73,9.21-16.09,13.82-9.61-3.62-19.3-6.97-29.07-10,3.2-5.15,4-11.6,.39-17.2-1.56-2.42-3.83-4.52-6.44-6.04l.97-.29s-.3-3.91-3.69-4.89c-1.62-.47-2.57,1.15-3.13,2.96-1.18-.23-2.39-.33-3.58-.29-3.52-1.64-7.59-2.04-11.89-1.3-13.13,2.24-23.4,9.65-32.5,18.59-4-.13-8.01-.3-12-.61-5.06-.4-5.15-.35-10.14-1.4-3.99-.84-7.88-2.14-11.9-2.85-3.04-.54-6.07-.86-9.14-.91-.02,0-.03,0-.05,0-4.76-2.98-10.64-3.89-15.93-1.18-.52-.67-1.18-1.05-1.97-.55-1.43,.89-1.89,2.28-2,3.41-5.53,5.3-8.22,14.39-3.46,21.16,3.83,5.44,8.36,9.17,15.03,10.46,2.91,.56,5.5,.66,8.38,.7,.59-.02,1.19,0,1.78,.02,0,.04,.54,.16,1.65,.37,1.13,.37,2.27,.71,3.42,1.03-1.88,1.3-3.76,2.62-5.63,3.94-18.77-5-37.93-9.16-57.43-9.44-3.42-.05-6.78,1.12-9.6,3.08-.53-1.32-1.49-2.97-2.82-2.13-2.77,1.73-1.92,5.31-1.92,5.31l1.77-.6c-2.85,3.07-4.63,7.08-4.44,11.34,.42,9.32,7.47,16.86,17,17,4.93,.07,9.82,.4,14.72,.92,.41,.05,.74,.09,1.01,.12,1.2,.18,2.39,.37,3.59,.57,1.46,.24,2.91,.52,4.36,.79-.96,.89-1.92,1.78-2.86,2.69-2.01,1.95-4.01,3.91-5.94,5.91-2.27-.94-4.55-1.88-6.83-2.78-16.59-6.59-33.48-11.15-51.31-12.71-8.88-.78-17.39,8.37-17,17,.44,9.87,7.48,16.17,17,17,1.43,.13,2.87,.26,4.3,.43,.1,.05,3.25,.56,3.84,.67,3.61,.68,7.19,1.51,10.74,2.46,7.13,1.91,14.12,4.33,21,6.99,1.13,.44,2.25,.89,3.38,1.34-.39,8.08-.16,16.28,.05,24.44-11.99-5.06-24.49-9.18-37.06-9.34-8.9-.11-17.41,7.9-17,17,.42,9.31,7.47,16.88,17,17,.99-.01,1.98,.03,2.97,.1,.19,.05,.79,.17,1.83,.35,2.44,.66,4.87,1.28,7.27,2.08,4.15,1.38,8.25,2.96,12.32,4.57,4.75,1.88,5.2,2.08,9.74,4.08,1.09,.48,2.18,.97,3.27,1.46,.05,9.1,.13,18.21,.31,27.3-10.09-2.77-20.39-4.93-30.96-6.28-8.86-1.13-17.38,8.62-17,17,.44,9.72,6.9,15.27,15.75,16.8,1.12,1.26,2.43,2.4,3.94,3.34,9.59,5.99,20.14,10.06,30.84,13.62,2.42,19.11,7.33,37.84,17.54,54.45,1.4,2.27,3.35,4.18,5.61,5.6-2.17,1.1-5.16,3.16-1.37,4.8,3.91,1.7,6.24-.82,7.24-2.38,3.96,.87,8.18,.39,11.78-1.93,7.6-4.9,11.08-15.15,6.1-23.26-1.46-2.37-2.84-4.78-4.09-7.27-.37-.73-1.95-4.38-1.93-4.2-1.03-2.66-1.95-5.37-2.77-8.1,.18,.09,.37,.18,.55,.27,16.18,8,32.36,15.97,48.79,23.4,.11,12.36,.05,24.73-.21,37.09-.12,5.92,3.45,11.66,8.52,14.72-1.02,1.93-1.59,3.87-.19,4.38,3.02,1.12,7.42-1.46,7.42-1.46l-.39-.68c.54,.04,1.09,.05,1.64,.03,9.37-.42,16.81-7.47,17-17,.15-7.6,.23-15.21,.25-22.82,6.69,2.52,13.44,4.87,20.26,7,1.97,.61,4.02,1.31,6.11,1.99,.12,13.92,.39,27.85,.67,41.76,.18,8.89,7.69,17.42,17,17,9.06-.41,17.19-7.47,17-17-.19-9.38-.37-18.77-.51-28.15,2.98,2.8,6.89,4.55,11.23,4.35,3.52-.16,6.9-1.34,9.72-3.27l-.82,2.4s2.11,.96,3.44-1l-.97-2.68c3.49-3.04,5.76-7.39,5.64-12.45-.38-14.83-.95-29.76-1.29-44.69,2.12,7.02,8.55,12.79,16.25,12.44,3.79-.17,7.43-1.53,10.36-3.73l-1.57,4.6s2.11,.96,3.44-1.01c1.04-1.54-.53-3.36-1.26-4.07,3.72-3.05,6.15-7.55,6.03-12.79-.27-11.84-.54-23.7-.39-35.54,4.23-4.2,8.39-8.45,12.12-13.06,5.17-6.39,8.89-13.15,11.04-21.13,.74-2.77,1.59-5.58,2.18-8.38,.07-.34,.31-.93,.44-1.25,.09-.17,.2-.34,.29-.51,.09-.09,.17-.18,.27-.29,2.38-2.44,3.93-5.62,4.56-8.97,.71,.52,1.37,.45,1.56-1.26,.29-2.54-.6-3.63-1.36-4.09-.4-3.64-1.94-7.12-4.77-9.72-4.71-4.33-11.37-5.9-17.22-4.12,.22-1.03,.44-2.07,.66-3.1,9.22-13.35,18.01-26.99,26.31-40.94,1-1.69,1.64-3.56,1.97-5.49,.92,1.02,1.96,1.57,2.21-.65,.41-3.52-1.46-4.25-2.08-4.4ZM144.14,32.17c1.55,.95,2.9,2.36,4.02,4.26-1.12-1.6-2.49-3.03-4.02-4.26Zm103.99,99.28c.27,.12,.63,.28,1.11,.49,1.06,.48,2.12,.97,3.17,1.47,3.87,1.87,7.6,3.98,11.32,6.13,5.25,3.03,10.41,5.55,15.83,7.42-1.45,6.14-2.65,12.37-3.78,18.61-2.62-1.65-5.77-2.69-9.26-3.11,2.62,.32-1.49-.32-2.25-.49-1.95-.42-3.89-.92-5.8-1.48-3.58-1.04-7.09-2.31-10.55-3.67-1.43-.56-2.85-1.15-4.27-1.74-.53-.23-3.22-1.38-3.67-1.57-4.27-1.83-8.54-3.67-12.86-5.38-3.99-1.58-8.03-2.96-12.11-4.22,1.18-1.07,2.38-2.12,3.59-3.15,1.87-1.58,3.77-3.13,5.7-4.64,.15-.12,.27-.21,.37-.29,.21-.15,.45-.33,.74-.54,1.1-.81,2.2-1.63,3.3-2.44,2.58-1.89,5.19-3.73,7.8-5.57,2.1,.68,4.2,1.39,6.28,2.14,1.79,.65,3.58,1.32,5.34,2.04Zm-33.98-59.17c4.71,.83,9.38,1.87,14,3.12,5.43,1.46,10.74,3.04,15.98,4.71-2.16,1.68-4.29,3.29-6.38,4.81-2.44,1.78-4.91,3.54-7.39,5.28-9.55-2.37-19.23-4.27-28.88-6.17,4.23-3.91,8.43-7.85,12.67-11.76Zm-46.15,39.23c7.83,1.85,15.69,3.59,23.63,5.15,.8,.16,1.6,.32,2.4,.47-2.29,1.98-4.54,4.01-6.71,6.12-3.45,3.34-7.15,7.03-10.48,11.03-10.79-2.67-21.34-5.86-31.72-9.74,8.02-3.66,15.62-8.08,22.89-13.04Zm-47.84,39.36c.41,.17,.82,.36,1.23,.53,14.9,6.31,29.88,11.64,45.6,15.49,.16,1.17,.33,2.34,.48,3.51,.81,6.54,1.57,13.1,2.27,19.65,.3,2.84,.6,5.67,.88,8.51-.59-.22-1.18-.43-1.77-.65-2.05-.78-4.09-1.58-6.13-2.39-1.16-.46-2.31-.94-3.47-1.41-1.93-.8-2.31-.96-1.12-.47-12.77-5.45-25.26-11.53-37.82-17.46-.05-8.44-.1-16.87-.15-25.31Zm33.8,100.6c-10.92-5.19-21.87-10.15-32.97-14.62-.26-7.71-.39-15.43-.47-23.15,8.68,4.06,17.39,8.04,26.23,11.75,8.89,3.74,17.92,7.08,27.02,10.22,.61,8.68,1.13,17.37,1.55,26.07-7.11-3.45-14.23-6.87-21.36-10.26Zm83.98,25.16c-.28,6.29-.45,12.58-.59,18.87-8.3-6.85-17.7-12-27.33-16.81-.37-10.57-.88-21.14-1.52-31.7,4.93,1.58,9.85,3.18,14.75,4.85,3.18,1.08,6.34,2.2,9.5,3.34-.39,3.67,.28,7.41,2.16,10.33,1.01,1.57,2.16,2.9,3.42,4.01-.15,2.37-.29,4.74-.39,7.11Zm4.71-53.8c-11.11-4.06-22.34-7.77-33.65-11.36-1.09-.34-2.17-.69-3.26-1.04-.2-2.2-.4-4.41-.61-6.61-.91-9.45-1.93-18.89-3.06-28.32,4.58,1.32,9.11,2.78,13.58,4.47,1.72,.65,3.42,1.34,5.12,2.03-.36-.14,3.03,1.28,3.64,1.54,4.8,2.06,9.6,4.14,14.46,6.05,1.77,.7,3.54,1.32,5.31,1.91,.05,10.43-.6,20.88-1.53,31.32Zm71.67-84.35c-.85-3.24-2.49-5.77-4.59-7.66-1.34-8.73-8.01-13.65-16.77-14.74,2.78,.35-.96-.59-2.71-1.06-.14-.16-3.77-1.71-4.24-1.97-3.46-1.84-6.79-3.91-10.22-5.8-2.29-1.26-4.62-2.45-6.98-3.59,4.1-3.24,8.16-6.54,12.18-9.88,13.42,5.69,26.58,12,39.84,18.79-2.24,8.61-4.42,17.24-6.51,25.9Z"/>
  <path class="cls-3" d="M379.03,60.88s1.43-5.72-2.9-6.97c-4.32-1.24-3.44,6.97-3.44,6.97h6.34Z"/>
  <path class="cls-3" d="M23.95,93.5s-3.81,1.68-3.13,7.52c.68,5.86,8.98-.71,8.98-.71l-5.85-6.81Z"/>
  <path class="cls-3" d="M28.22,170.03s-.73-4.24,1.91-5.12c2.11-.69,6.25,.34,6.25,.34l-8.16,4.78Z"/>
  <path class="cls-3" d="M35.75,240.18s-.73-4.24,1.91-5.12c2.11-.69,6.25,.33,6.25,.33l-8.16,4.79Z"/>
  <rect class="cls-3" x="230.74" y="121.11" width="148.63" height="26.88" transform="translate(-11.87 238.07) rotate(-41.89)"/>
  <rect class="cls-3" x="138.88" y="62.08" width="26.88" height="164.6" transform="translate(-32.89 243.11) rotate(-71.53)"/>
  <rect class="cls-3" x="248.2" y="198.25" width="26.88" height="164.6"/>
  <polygon class="cls-3" points="82.06 279.26 222.56 338.45 220.42 216.99 72.24 163.45 82.06 279.26"/>
  <path class="cls-3" d="M187.35,151.51l68.47,23.03c3.34,1.12,6.04,4.53,6.04,7.6v63.91c0,3.08-2.62,4.6-5.86,3.4l-66.35-24.58c-3.23-1.2-5.94-4.61-6.05-7.61l-2.11-62.34c-.1-3.01,2.52-4.53,5.86-3.41"/>
  <path class="cls-4" d="M191.5,158.68l60.35,20.46c2,.67,3.63,2.72,3.63,4.56l.15,56.33c0,1.85-1.57,2.76-3.51,2.04l-58.78-21.61c-1.95-.71-3.57-2.76-3.63-4.56l-1.73-55.18c-.05-1.8,1.52-2.72,3.52-2.04"/>
  <path class="cls-3" d="M106.8,124.42l68.47,23.03c3.34,1.12,6.12,4.46,6.22,7.47l2.12,62.34c.1,3-2.43,4.47-5.67,3.27l-66.35-24.58c-3.23-1.2-6.02-4.54-6.22-7.47l-4.24-60.79c-.2-2.93,2.34-4.39,5.67-3.27"/>
  <path class="cls-4" d="M111.15,131.45l60.35,20.46c2,.68,3.67,2.69,3.74,4.48l2.02,54.96c.07,1.8-1.46,2.68-3.4,1.97l-58.78-21.61c-1.95-.72-3.62-2.73-3.74-4.49l-3.59-53.8c-.12-1.76,1.41-2.64,3.4-1.96"/>
  <path class="cls-3" d="M26.25,97.33l68.47,23.03c3.34,1.12,6.2,4.4,6.41,7.33l4.24,60.79c.2,2.93-2.26,4.33-5.49,3.13l-66.35-24.58c-3.23-1.2-6.1-4.48-6.41-7.33l-6.35-59.24c-.3-2.86,2.16-4.26,5.49-3.13"/>
  <path class="cls-4" d="M30.8,104.21l60.35,20.46c2,.67,3.72,2.65,3.85,4.4l3.89,53.58c.13,1.75-1.34,2.59-3.29,1.88l-58.78-21.61c-1.94-.72-3.67-2.69-3.85-4.4l-5.46-52.43c-.18-1.71,1.29-2.56,3.29-1.88"/>
  <path class="cls-3" d="M189.65,224.87l66.35,24.58c3.23,1.2,5.86,4.67,5.86,7.75v63.9c0,3.08-2.54,4.55-5.67,3.27l-64.24-26.13c-3.13-1.27-5.76-4.74-5.86-7.75l-2.11-62.35c-.11-3,2.43-4.46,5.67-3.27"/>
  <path class="cls-4" d="M193.68,232.14l58.49,21.83c1.94,.73,3.51,2.81,3.51,4.65l.15,56.34c0,1.84-1.52,2.72-3.4,1.96l-56.92-22.99c-1.88-.76-3.45-2.84-3.51-4.65l-1.72-55.18c-.06-1.8,1.47-2.69,3.4-1.96"/>
  <path class="cls-3" d="M111.59,195.95l66.35,24.58c3.23,1.2,5.95,4.61,6.05,7.61l2.11,62.35c.1,3-2.35,4.4-5.48,3.13l-64.24-26.13c-3.13-1.27-5.83-4.68-6.04-7.61l-4.23-60.79c-.21-2.93,2.25-4.33,5.48-3.13"/>
  <path class="cls-4" d="M115.81,203.07l58.49,21.83c1.94,.73,3.56,2.77,3.63,4.56l2.02,54.96c.07,1.8-1.41,2.64-3.29,1.89l-56.91-22.99c-1.89-.76-3.51-2.81-3.63-4.56l-3.59-53.8c-.12-1.76,1.36-2.6,3.29-1.88"/>
  <path class="cls-3" d="M33.52,167.03l66.35,24.58c3.23,1.2,6.02,4.55,6.23,7.47l4.23,60.79c.21,2.93-2.16,4.27-5.3,2.99l-64.24-26.14c-3.13-1.27-5.92-4.62-6.22-7.48l-6.35-59.23c-.31-2.85,2.07-4.19,5.3-2.99"/>
  <path class="cls-4" d="M37.95,174.01l58.49,21.83c1.94,.73,3.61,2.73,3.73,4.48l3.89,53.58c.13,1.75-1.3,2.56-3.18,1.8l-56.92-22.99c-1.89-.76-3.56-2.77-3.73-4.49l-5.47-52.42c-.18-1.71,1.25-2.52,3.18-1.8"/>
  <path class="cls-3" d="M191.95,298.23l64.24,26.14c3.13,1.27,5.67,4.8,5.67,7.88v63.91c0,3.08-2.45,4.48-5.48,3.13l-62.12-27.69c-3.03-1.35-5.57-4.88-5.67-7.89l-2.12-62.34c-.1-3,2.36-4.41,5.48-3.13"/>
  <path class="cls-4" d="M195.86,305.59l56.62,23.21c1.87,.77,3.4,2.89,3.4,4.73l.14,56.33c0,1.85-1.47,2.69-3.29,1.88l-55.04-24.36c-1.82-.81-3.35-2.93-3.4-4.73l-1.72-55.18c-.06-1.81,1.42-2.65,3.29-1.88"/>
  <path class="cls-3" d="M116.37,267.49l64.24,26.14c3.13,1.27,5.76,4.74,5.86,7.74l2.12,62.35c.1,3-2.28,4.34-5.3,2.99l-62.12-27.7c-3.03-1.35-5.65-4.82-5.85-7.75l-4.24-60.79c-.2-2.93,2.18-4.27,5.3-2.99"/>
  <path class="cls-4" d="M120.48,274.69l56.62,23.21c1.87,.77,3.44,2.85,3.51,4.65l2.02,54.96c.06,1.8-1.36,2.6-3.18,1.8l-55.05-24.36c-1.82-.81-3.39-2.89-3.51-4.65l-3.59-53.8c-.12-1.76,1.31-2.57,3.18-1.8"/>
  <path class="cls-3" d="M40.8,236.73l64.24,26.14c3.13,1.27,5.84,4.68,6.04,7.61l4.24,60.79c.2,2.93-2.09,4.21-5.12,2.86l-62.12-27.7c-3.03-1.35-5.74-4.76-6.04-7.61l-6.35-59.23c-.31-2.86,1.99-4.14,5.11-2.86"/>
  <path class="cls-4" d="M45.1,243.8l56.62,23.21c1.87,.77,3.5,2.81,3.63,4.56l3.89,53.58c.13,1.75-1.25,2.52-3.07,1.71l-55.05-24.36c-1.82-.81-3.44-2.86-3.62-4.57l-5.47-52.42c-.18-1.71,1.2-2.48,3.07-1.71"/>
  <polygon class="cls-3" points="97.34 91.09 245.11 138.65 313.01 74.17 176.56 35.18 97.34 91.09"/>
  <path class="cls-3" d="M315.75,37.68l59.36,15.87c2.88,.76,3.89,2.76,2.26,4.43l-33.59,34.72c-1.63,1.68-5.4,2.33-8.44,1.44l-62.48-18.24c-3.03-.88-4.04-2.87-2.26-4.44l36.72-32.35c1.78-1.56,5.55-2.21,8.43-1.44"/>
  <path class="cls-4" d="M315.82,41.66l52.66,14.19c1.73,.47,2.34,1.66,1.36,2.66l-29.9,30.5c-.98,1.01-3.25,1.39-5.06,.87l-54.98-15.95c-1.81-.52-2.42-1.71-1.36-2.66l32.22-28.74c1.06-.95,3.32-1.34,5.06-.87"/>
  <path class="cls-3" d="M245.97,19.03l59.36,15.87c2.87,.77,3.76,2.67,1.98,4.23l-36.71,32.35c-1.78,1.57-5.67,2.12-8.71,1.24l-62.48-18.24c-3.03-.88-3.92-2.77-1.99-4.23l39.83-29.98c1.94-1.45,5.83-2,8.71-1.24"/>
  <path class="cls-2" d="M245.75,22.78l52.66,14.18c1.73,.47,2.26,1.61,1.19,2.54l-32.66,28.41c-1.07,.93-3.41,1.27-5.22,.74l-54.98-15.94c-1.81-.52-2.35-1.66-1.19-2.53l34.98-26.65c1.15-.88,3.49-1.21,5.22-.74"/>
  <path class="cls-3" d="M176.2,.37l59.36,15.87c2.88,.77,3.64,2.57,1.71,4.03l-39.83,29.98c-1.94,1.46-5.96,1.92-8.98,1.03l-62.48-18.24c-3.03-.88-3.8-2.69-1.71-4.02L167.22,1.4c2.08-1.34,6.1-1.8,8.98-1.03"/>
  <path class="cls-4" d="M175.68,3.9l52.66,14.19c1.73,.47,2.19,1.54,1.03,2.41l-35.41,26.32c-1.17,.87-3.58,1.15-5.39,.62l-54.98-15.95c-1.8-.52-2.26-1.6-1.03-2.41L170.29,4.52c1.24-.81,3.66-1.08,5.39-.62"/>
  <path class="cls-3" d="M272.87,75.92l62.48,18.24c3.03,.88,4.17,2.96,2.54,4.65l-33.6,34.71c-1.63,1.68-5.52,2.24-8.7,1.24l-65.6-20.61c-3.18-1-4.31-3.08-2.53-4.65l36.71-32.35c1.78-1.56,5.68-2.12,8.71-1.24"/>
  <path class="cls-2" d="M273.12,80.03l55.42,16.28c1.82,.54,2.5,1.78,1.52,2.79l-29.9,30.51c-.98,1-3.32,1.34-5.22,.74l-57.74-18.04c-1.9-.59-2.58-1.84-1.53-2.79l32.22-28.74c1.07-.95,3.4-1.28,5.23-.74"/>
  <path class="cls-3" d="M199.42,54.48l62.48,18.24c3.03,.88,4.04,2.87,2.26,4.44l-36.71,32.35c-1.78,1.57-5.8,2.03-8.98,1.03l-65.6-20.6c-3.18-1-4.19-2.99-2.26-4.44l39.84-29.98c1.93-1.45,5.95-1.91,8.98-1.03"/>
  <path class="cls-1" d="M199.38,58.37l55.42,16.28c1.83,.54,2.43,1.73,1.36,2.66l-32.65,28.41c-1.08,.93-3.49,1.21-5.39,.62l-57.74-18.04c-1.9-.59-2.51-1.78-1.36-2.66l34.98-26.65c1.15-.88,3.56-1.15,5.38-.62"/>
  <path class="cls-3" d="M125.98,33.04l62.48,18.24c3.03,.88,3.92,2.77,1.99,4.23l-39.83,29.98c-1.93,1.46-6.08,1.82-9.25,.83l-65.6-20.6c-3.18-1-4.07-2.89-1.99-4.23l42.96-27.62c2.09-1.34,6.23-1.7,9.25-.82"/>
  <path class="cls-2" d="M125.65,36.71l55.42,16.28c1.83,.54,2.36,1.68,1.2,2.54l-35.42,26.32c-1.17,.87-3.65,1.09-5.55,.49l-57.74-18.03c-1.9-.6-2.43-1.73-1.19-2.54l37.73-24.57c1.25-.81,3.73-1.03,5.55-.49"/>
  <path class="cls-3" d="M229.98,114.15l65.6,20.6c3.18,1,4.43,3.18,2.81,4.85l-33.59,34.71c-1.63,1.68-5.65,2.15-8.98,1.03l-68.72-22.97c-3.33-1.11-4.58-3.28-2.81-4.85l36.71-32.35c1.78-1.56,5.8-2.03,8.98-1.03"/>
  <path class="cls-4" d="M230.41,118.4l58.18,18.37c1.91,.61,2.67,1.9,1.68,2.91l-29.9,30.5c-.98,1-3.39,1.28-5.38,.62l-60.49-20.13c-1.99-.66-2.75-1.96-1.68-2.91l32.21-28.75c1.07-.95,3.47-1.22,5.39-.62"/>
  <path class="cls-3" d="M152.87,89.93l65.6,20.6c3.18,1,4.31,3.08,2.53,4.65l-36.72,32.35c-1.78,1.57-5.92,1.94-9.25,.82l-68.72-22.97c-3.33-1.12-4.46-3.2-2.53-4.65l39.84-29.98c1.93-1.45,6.07-1.82,9.25-.82"/>
  <path class="cls-2" d="M153.01,93.96l58.18,18.37c1.91,.6,2.6,1.85,1.52,2.79l-32.65,28.41c-1.08,.94-3.57,1.16-5.55,.5l-60.5-20.13c-1.99-.66-2.67-1.91-1.52-2.79l34.98-26.65c1.15-.88,3.64-1.1,5.55-.49"/>
  <path class="cls-3" d="M75.76,65.71l65.6,20.6c3.18,1,4.19,2.99,2.26,4.44l-39.83,29.98c-1.93,1.45-6.2,1.73-9.53,.61L25.54,98.38c-3.34-1.12-4.34-3.1-2.26-4.44l42.96-27.61c2.08-1.34,6.35-1.62,9.53-.62"/>
  <path class="cls-4" d="M75.61,69.52l58.18,18.36c1.91,.61,2.52,1.8,1.36,2.67l-35.41,26.32c-1.17,.87-3.73,1.03-5.72,.37l-60.5-20.12c-1.99-.66-2.6-1.85-1.36-2.67l37.73-24.56c1.24-.81,3.8-.98,5.72-.37"/>
  <polygon class="cls-3" points="280.73 327.47 343.64 240.52 354.3 126.95 283.76 207.12 280.73 327.47"/>
  <path class="cls-3" d="M343.43,92.16l33.43-34.85c1.61-1.69,2.67-.78,2.35,2.03l-6.64,57.95c-.32,2.81-1.82,6.53-3.33,8.31l-31.33,36.72c-1.51,1.78-2.57,.87-2.35-2.03l4.53-59.82c.22-2.9,1.71-6.62,3.34-8.31"/>
  <path class="cls-4" d="M344.93,95.69l29.38-30.92c.97-1.01,1.6-.47,1.41,1.22l-5.72,51.33c-.18,1.69-1.08,3.92-1.99,4.99l-27.82,32.3c-.92,1.07-1.55,.52-1.41-1.21l4.15-52.72c.14-1.73,1.03-3.97,2-4.98"/>
  <path class="cls-3" d="M304.13,133.13l33.43-34.85c1.62-1.69,2.76-.71,2.53,2.19l-4.54,59.82c-.21,2.9-1.63,6.7-3.15,8.47l-31.33,36.72c-1.51,1.78-2.65,.8-2.53-2.19l2.43-61.68c.12-2.99,1.53-6.78,3.15-8.47"/>
  <path class="cls-4" d="M305.82,136.83l29.39-30.92c.96-1.01,1.65-.42,1.52,1.32l-3.86,52.98c-.13,1.75-.97,4.02-1.89,5.09l-27.82,32.31c-.92,1.06-1.6,.47-1.53-1.32l2.3-54.37c.08-1.78,.92-4.07,1.89-5.08"/>
  <path class="cls-3" d="M264.83,174.09l33.43-34.85c1.62-1.69,2.84-.64,2.72,2.36l-2.43,61.69c-.11,2.99-1.44,6.85-2.96,8.63l-31.33,36.72c-1.51,1.78-2.74,.73-2.72-2.36l.33-63.55c.02-3.08,1.34-6.95,2.96-8.64"/>
  <path class="cls-4" d="M266.72,177.98l29.39-30.92c.96-1.01,1.7-.38,1.63,1.41l-2,54.63c-.07,1.8-.86,4.12-1.78,5.18l-27.82,32.31c-.92,1.06-1.65,.43-1.63-1.41l.44-56.02c.01-1.85,.81-4.17,1.78-5.18"/>
  <path class="cls-3" d="M337.91,162.31l31.33-36.72c1.52-1.78,2.49-.95,2.17,1.87l-6.64,57.95c-.32,2.81-1.73,6.6-3.15,8.47l-29.22,38.59c-1.42,1.87-2.39,1.03-2.17-1.87l4.54-59.82c.22-2.9,1.63-6.7,3.15-8.47"/>
  <path class="cls-4" d="M339.29,165.74l27.52-32.57c.91-1.08,1.49-.57,1.3,1.12l-5.72,51.32c-.18,1.7-1.03,3.97-1.89,5.09l-25.96,33.96c-.86,1.12-1.44,.62-1.31-1.12l4.16-52.72c.13-1.73,.98-4.01,1.89-5.08"/>
  <path class="cls-3" d="M301.08,205.48l31.33-36.72c1.52-1.78,2.57-.87,2.35,2.02l-4.53,59.82c-.22,2.9-1.54,6.76-2.96,8.63l-29.22,38.59c-1.42,1.87-2.47,.96-2.35-2.02l2.43-61.69c.12-2.99,1.44-6.86,2.96-8.64"/>
  <path class="cls-4" d="M302.66,209.07l27.53-32.57c.9-1.08,1.53-.53,1.41,1.21l-3.86,52.98c-.13,1.75-.92,4.07-1.78,5.18l-25.96,33.96c-.86,1.12-1.49,.57-1.41-1.22l2.29-54.37c.08-1.79,.88-4.11,1.78-5.18"/>
  <path class="cls-3" d="M264.26,248.64l31.33-36.72c1.52-1.78,2.65-.8,2.53,2.19l-2.43,61.69c-.11,2.99-1.36,6.93-2.77,8.8l-29.23,38.59c-1.41,1.87-2.55,.89-2.53-2.19l.33-63.55c.02-3.08,1.26-7.02,2.78-8.8"/>
  <path class="cls-4" d="M266.03,252.41l27.52-32.57c.91-1.08,1.59-.49,1.53,1.31l-2,54.63c-.06,1.8-.81,4.17-1.66,5.28l-25.96,33.96c-.86,1.12-1.54,.53-1.53-1.31l.44-56.03c.01-1.84,.76-4.21,1.66-5.28"/>
  <path class="cls-3" d="M332.39,232.47l29.22-38.59c1.42-1.87,2.31-1.1,1.99,1.7l-6.64,57.95c-.32,2.81-1.65,6.67-2.96,8.63l-27.12,40.46c-1.32,1.96-2.21,1.2-1.98-1.7l4.53-59.82c.22-2.9,1.54-6.76,2.96-8.64"/>
  <path class="cls-4" d="M333.64,235.78l25.67-34.23c.84-1.12,1.37-.67,1.19,1.02l-5.72,51.33c-.19,1.69-.98,4.01-1.78,5.18l-24.1,35.61c-.79,1.17-1.33,.72-1.19-1.02l4.15-52.72c.14-1.73,.93-4.05,1.78-5.18"/>
  <path class="cls-3" d="M298.04,277.83l29.22-38.59c1.42-1.87,2.39-1.03,2.17,1.87l-4.54,59.82c-.22,2.9-1.46,6.84-2.77,8.8l-27.12,40.46c-1.32,1.96-2.28,1.13-2.17-1.86l2.43-61.69c.12-2.99,1.36-6.93,2.78-8.8"/>
  <path class="cls-4" d="M299.49,281.32l25.67-34.22c.84-1.13,1.42-.62,1.3,1.12l-3.86,52.98c-.13,1.75-.87,4.11-1.66,5.28l-24.1,35.61c-.79,1.17-1.38,.67-1.31-1.12l2.3-54.37c.08-1.78,.82-4.15,1.66-5.28"/>
  <path class="cls-3" d="M263.69,323.19l29.22-38.59c1.42-1.87,2.47-.96,2.35,2.03l-2.43,61.69c-.11,2.99-1.27,7-2.59,8.96l-27.12,40.46c-1.31,1.96-2.36,1.05-2.35-2.03l.32-63.55c.02-3.08,1.18-7.09,2.6-8.96"/>
  <path class="cls-4" d="M265.34,326.85l25.67-34.22c.84-1.13,1.48-.59,1.41,1.22l-2,54.63c-.06,1.8-.76,4.21-1.55,5.38l-24.1,35.61c-.8,1.17-1.43,.62-1.41-1.22l.44-56.02c.01-1.84,.71-4.25,1.56-5.38"/>
  <path class="cls-3" d="M264.52,395.64c-1.75,2.55-3.27,5.82-8.15,3.64-4.89-2.18,3.57-3.23,3.57-3.23,0,0,6.33-2.97,4.58-.42"/>
</svg>